<?xml version="1.0" encoding="utf-8"?>
<!-- Generator: Adobe Illustrator 21.0.2, SVG Export Plug-In . SVG Version: 6.00 Build 0)  -->
<svg version="1.1" id="Layer_1" xmlns="http://www.w3.org/2000/svg" xmlns:xlink="http://www.w3.org/1999/xlink" x="0px" y="0px"
	 viewBox="0 0 175.8 204.8" style="enable-background:new 0 0 175.8 204.8;" xml:space="preserve">
<style type="text/css">
	.st0{fill:#161614;}
</style>
<g>
	<path class="st0" d="M53.7,196.7c1.3,0.2,4.5,0.6,6.7-1.3c1.6-1.5,2.1-3.6,2.1-4.9c0-3.1-0.1-13.1-0.2-23.8
		c-35.6,7.7-45.1-15.1-45.1-15.1c-5.8-14.8-12.2-18.7-12.2-18.7c-11.6-7.9,0.9-7.8,0.9-7.8c12.9,0.9,19.6,13.2,19.6,13.2
		c11.4,19.6,29.9,13.9,37.2,10.6c1.1-8.3,4.5-13.9,8.1-17.1c-28.4-3.2-58.3-14.2-58.3-63.3c0-14,5-25.4,13.2-34.4
		c-1.3-3.2-5.7-16.2,1.2-33.9c0,0,10.7-3.4,35.2,13.1c10.2-2.8,21.2-4.3,32-4.3c10.9,0,21.8,1.5,32.1,4.3
		c24.4-16.6,35.2-13.1,35.2-13.1c7,17.6,2.6,30.7,1.3,33.9c8.2,9,13.2,20.4,13.2,34.4c0,49.2-29.9,60-58.4,63.2
		c4.6,4,8.7,11.8,8.7,23.7c0,17.1-0.1,30.9-0.1,35.1c0,1.1,0.3,3.4,2.1,4.9c2.1,1.9,5.3,1.5,6.7,1.2c-9.9,3.7-27,8.6-48.3,7.2
		C72.9,202.9,61.7,199.7,53.7,196.7z"/>
</g>
<path class="st0" d="M69.8,204.8"/>
</svg>
