<?xml version="1.0" encoding="utf-8"?>
<!-- Generator: Adobe Illustrator 21.0.2, SVG Export Plug-In . SVG Version: 6.00 Build 0)  -->
<svg version="1.1" id="Layer_1" xmlns="http://www.w3.org/2000/svg" xmlns:xlink="http://www.w3.org/1999/xlink" x="0px" y="0px"
	 viewBox="0 0 92.7 92.6" style="enable-background:new 0 0 92.7 92.6;" xml:space="preserve">
<g>
	<path d="M11.1,0c6.1,0,11.1,5,11.1,11.1c0,6.2-5,11.1-11.1,11.1C5,22.3,0,17.3,0,11.1C0,5,5,0,11.1,0L11.1,0z M1.5,30.7h19.2v61.8
		H1.5V30.7z"/>
	<path d="M32.8,30.7h18.4v8.4h0.3c2.6-4.9,8.8-10,18.2-10c19.5,0,23.1,12.8,23.1,29.5v33.9H73.5V62.5c0-7.2-0.1-16.4-10-16.4
		C53.5,46.1,52,53.9,52,62v30.6H32.8V30.7"/>
</g>
</svg>
