<?xml version="1.0" encoding="utf-8"?>
<!-- Generator: Adobe Illustrator 23.0.1, SVG Export Plug-In . SVG Version: 6.00 Build 0)  -->
<svg version="1.1" id="Layer_1" xmlns="http://www.w3.org/2000/svg" xmlns:xlink="http://www.w3.org/1999/xlink" x="0px" y="0px"
	 viewBox="0 0 255.1 144.8" style="enable-background:new 0 0 255.1 144.8;" xml:space="preserve">
<style type="text/css">
	.st0{fill-rule:evenodd;clip-rule:evenodd;fill:#364548;}
	.st1{fill-rule:evenodd;clip-rule:evenodd;fill:#22A0C8;}
	.st2{fill-rule:evenodd;clip-rule:evenodd;fill:#37B1D9;}
	.st3{fill-rule:evenodd;clip-rule:evenodd;fill:#1B81A5;}
	.st4{fill-rule:evenodd;clip-rule:evenodd;fill:#1D91B4;}
	.st5{fill-rule:evenodd;clip-rule:evenodd;fill:#23A3C2;}
	.st6{fill-rule:evenodd;clip-rule:evenodd;fill:#34BBDE;}
	.st7{fill-rule:evenodd;clip-rule:evenodd;fill:#D3ECEC;}
	.st8{fill-rule:evenodd;clip-rule:evenodd;fill:#BDD9D7;}
</style>
<g>
	<path class="st0" d="M147.5,45.7h22.9v23.4h11.6c5.3,0,10.8-1,15.9-2.7c2.5-0.8,5.3-2,7.7-3.5c-3.2-4.2-4.9-9.5-5.4-14.8
		c-0.7-7.1,0.8-16.4,5.6-22l2.4-2.8l2.9,2.3c7.2,5.8,13.3,13.9,14.3,23.1c8.7-2.6,18.9-1.9,26.5,2.5l3.1,1.8l-1.7,3.2
		c-6.5,12.6-20,16.5-33.2,15.9c-19.8,49.3-62.9,72.7-115.2,72.7c-27,0-51.8-10.1-65.9-34l-0.2-0.4l-2.1-4.2
		c-4.8-10.5-6.4-22.1-5.3-33.6l0.3-3.5h19.6V45.7h22.9V22.9H120V0h27.4V45.7"/>
	<path class="st1" d="M221.6,54.4c1.5-11.9-7.4-21.3-12.9-25.7c-6.4,7.4-7.4,26.7,2.6,34.8c-5.6,5-17.3,9.4-29.4,9.4H35.4
		c-1.2,12.6,1,24.1,6.1,34l1.7,3c1.1,1.8,2.2,3.5,3.5,5.2h0c6,0.4,11.6,0.5,16.7,0.4h0c10-0.2,18.1-1.4,24.3-3.5
		c0.9-0.3,1.9,0.2,2.2,1.1c0.3,0.9-0.2,1.9-1.1,2.2c-0.8,0.3-1.7,0.6-2.6,0.8c0,0,0,0,0,0c-4.9,1.4-10.1,2.3-16.8,2.7
		c0.4,0-0.4,0.1-0.4,0.1c-0.2,0-0.5,0-0.7,0.1c-2.6,0.1-5.5,0.2-8.4,0.2c-3.2,0-6.3-0.1-9.9-0.2l-0.1,0.1c12.2,13.7,31.3,22,55.2,22
		c50.6,0,93.6-22.5,112.6-72.9c13.5,1.4,26.5-2.1,32.4-13.6C240.6,49.2,228.5,50.9,221.6,54.4"/>
	<path class="st2" d="M221.6,54.4c1.5-11.9-7.4-21.3-12.9-25.7c-6.4,7.4-7.4,26.7,2.6,34.8c-5.6,5-17.3,9.4-29.4,9.4H44
		c-0.6,19.2,6.5,33.9,19.2,42.7h0c10-0.2,18.1-1.4,24.3-3.5c0.9-0.3,1.9,0.2,2.2,1.1c0.3,0.9-0.2,1.9-1.1,2.2
		c-0.8,0.3-1.7,0.6-2.6,0.8c0,0,0,0,0,0c-4.9,1.4-10.5,2.4-17.3,2.9c0,0-0.2-0.2-0.2-0.2c17.2,8.8,42.2,8.8,70.9-2.2
		c32.1-12.3,62-35.9,82.9-62.8C222.2,54.1,221.9,54.2,221.6,54.4"/>
	<path class="st3" d="M35.6,88.2c0.9,6.7,2.9,13,5.8,18.8l1.7,3c1.1,1.8,2.2,3.5,3.5,5.2c6,0.4,11.6,0.5,16.7,0.4
		c10-0.2,18.1-1.4,24.3-3.5c0.9-0.3,1.9,0.2,2.2,1.1c0.3,0.9-0.2,1.9-1.1,2.2c-0.8,0.3-1.7,0.6-2.6,0.8c0,0,0,0,0,0
		c-4.9,1.4-10.5,2.4-17.2,2.8c-0.2,0-0.6,0-0.9,0c-2.6,0.1-5.5,0.2-8.4,0.2c-3.2,0-6.5-0.1-10-0.2c12.2,13.7,31.4,22,55.4,22
		c43.4,0,81.1-16.5,103-52.8H35.6"/>
	<path class="st4" d="M45.4,88.2c2.6,11.8,8.8,21.1,17.9,27.4c10-0.2,18.1-1.4,24.3-3.5c0.9-0.3,1.9,0.2,2.2,1.1
		c0.3,0.9-0.2,1.9-1.1,2.2c-0.8,0.3-1.7,0.6-2.6,0.8c0,0,0,0,0,0c-4.9,1.4-10.6,2.4-17.3,2.8c17.2,8.8,42.2,8.7,70.8-2.3
		c17.3-6.7,34-16.6,49-28.5H45.4"/>
	<path class="st5" d="M55.3,49.5h19.8v19.8H55.3V49.5z M56.9,51.2h1.6v16.5h-1.6V51.2z M59.9,51.2h1.6v16.5h-1.6V51.2z M62.9,51.2
		h1.6v16.5h-1.6V51.2z M65.9,51.2h1.6v16.5h-1.6V51.2z M68.9,51.2h1.6v16.5h-1.6V51.2z M71.9,51.2h1.6v16.5h-1.6V51.2z"/>
	<path class="st5" d="M78.1,26.7h19.8v19.8H78.1V26.7z M79.8,28.3h1.6v16.5h-1.6V28.3z M82.7,28.3h1.6v16.5h-1.6V28.3z M85.7,28.3
		h1.6v16.5h-1.6V28.3z M88.7,28.3h1.6v16.5h-1.6V28.3z M91.7,28.3h1.6v16.5h-1.6V28.3z M94.7,28.3h1.6v16.5h-1.6V28.3z"/>
	<path class="st6" d="M78.1,49.5h19.8v19.8H78.1V49.5z M79.8,51.2h1.6v16.5h-1.6V51.2z M82.7,51.2h1.6v16.5h-1.6V51.2z M85.7,51.2
		h1.6v16.5h-1.6V51.2z M88.7,51.2h1.6v16.5h-1.6V51.2z M91.7,51.2h1.6v16.5h-1.6V51.2z M94.7,51.2h1.6v16.5h-1.6V51.2z"/>
	<path class="st5" d="M101,49.5h19.8v19.8H101V49.5z M102.6,51.2h1.6v16.5h-1.6V51.2z M105.6,51.2h1.6v16.5h-1.6V51.2z M108.6,51.2
		h1.6v16.5h-1.6V51.2z M111.6,51.2h1.6v16.5h-1.6V51.2z M114.6,51.2h1.6v16.5h-1.6V51.2z M117.6,51.2h1.6v16.5h-1.6V51.2z"/>
	<path class="st6" d="M101,26.7h19.8v19.8H101V26.7z M102.6,28.3h1.6v16.5h-1.6V28.3z M105.6,28.3h1.6v16.5h-1.6V28.3z M108.6,28.3
		h1.6v16.5h-1.6V28.3z M111.6,28.3h1.6v16.5h-1.6V28.3z M114.6,28.3h1.6v16.5h-1.6V28.3z M117.6,28.3h1.6v16.5h-1.6V28.3z"/>
	<path class="st6" d="M123.9,49.5h19.8v19.8h-19.8V49.5z M125.5,51.2h1.6v16.5h-1.6V51.2z M128.5,51.2h1.6v16.5h-1.6V51.2z
		 M131.5,51.2h1.6v16.5h-1.6V51.2z M134.5,51.2h1.6v16.5h-1.6V51.2z M137.5,51.2h1.6v16.5h-1.6V51.2z M140.5,51.2h1.6v16.5h-1.6
		V51.2z"/>
	<path class="st5" d="M123.9,26.7h19.8v19.8h-19.8V26.7z M125.5,28.3h1.6v16.5h-1.6V28.3z M128.5,28.3h1.6v16.5h-1.6V28.3z
		 M131.5,28.3h1.6v16.5h-1.6V28.3z M134.5,28.3h1.6v16.5h-1.6V28.3z M137.5,28.3h1.6v16.5h-1.6V28.3z M140.5,28.3h1.6v16.5h-1.6
		V28.3z"/>
	<path class="st6" d="M123.9,3.8h19.8v19.8h-19.8V3.8z M125.5,5.5h1.6V22h-1.6V5.5z M128.5,5.5h1.6V22h-1.6V5.5z M131.5,5.5h1.6V22
		h-1.6V5.5z M134.5,5.5h1.6V22h-1.6V5.5z M137.5,5.5h1.6V22h-1.6V5.5z M140.5,5.5h1.6V22h-1.6V5.5z"/>
	<path class="st5" d="M146.7,49.5h19.8v19.8h-19.8V49.5z M148.4,51.2h1.6v16.5h-1.6V51.2z M151.3,51.2h1.6v16.5h-1.6V51.2z
		 M154.3,51.2h1.6v16.5h-1.6V51.2z M157.3,51.2h1.6v16.5h-1.6V51.2z M160.3,51.2h1.6v16.5h-1.6V51.2z M163.3,51.2h1.6v16.5h-1.6
		V51.2z"/>
	<path class="st7" d="M96.7,101.5c3,0,5.5,2.4,5.5,5.5c0,3-2.4,5.5-5.5,5.5c-3,0-5.5-2.4-5.5-5.5C91.2,103.9,93.7,101.5,96.7,101.5"
		/>
	<path class="st0" d="M96.7,103c0.5,0,1,0.1,1.4,0.3c-0.5,0.3-0.8,0.8-0.8,1.4c0,0.9,0.7,1.6,1.6,1.6c0.6,0,1.1-0.3,1.4-0.8
		c0.2,0.5,0.3,1,0.3,1.5c0,2.2-1.8,3.9-3.9,3.9c-2.2,0-3.9-1.8-3.9-3.9C92.8,104.8,94.5,103,96.7,103"/>
	<path class="st0" d="M0,90.2h254.3c-5.5-1.4-17.5-3.3-15.5-10.6c-10.1,11.7-34.4,8.2-40.5,2.4c-6.8,9.9-46.6,6.1-49.3-1.6
		c-8.6,10-35.1,10-43.6,0C102.6,88.2,62.9,91.9,56,82c-6.1,5.7-30.4,9.2-40.5-2.4C17.5,86.9,5.5,88.8,0,90.2"/>
	<path class="st8" d="M111.2,140.9c-13.5-6.4-21-15.2-25.1-24.7c-5,1.4-11.1,2.4-18.1,2.7c-2.6,0.1-5.4,0.2-8.4,0.2
		c-3.4,0-6.9-0.1-10.6-0.3c12.4,12.4,27.7,22,56,22.1C107.1,141,109.2,141,111.2,140.9"/>
	<path class="st7" d="M91.2,125c-1.9-2.5-3.7-5.7-5-8.8c-5,1.4-11.1,2.4-18.1,2.7C72.9,121.6,79.8,124,91.2,125"/>
</g>
</svg>
