<?xml version="1.0" encoding="utf-8"?>
<!-- Generator: Adobe Illustrator 23.0.1, SVG Export Plug-In . SVG Version: 6.00 Build 0)  -->
<svg version="1.1" id="Layer_1" xmlns="http://www.w3.org/2000/svg" xmlns:xlink="http://www.w3.org/1999/xlink" x="0px" y="0px"
	 viewBox="0 0 41.2 36" style="enable-background:new 0 0 41.2 36;" xml:space="preserve">
<style type="text/css">
	.st0{fill:#CFD8DC;}
	.st1{fill:#2196F3;}
	.st2{fill:#FFC107;}
	.st3{fill:#1976D2;}
	.st4{fill:#F9A825;}
	.st5{fill:#DD2C00;}
	.st6{fill:#BF360C;}
</style>
<g id="surface1">
	<path class="st0" d="M26.6,7h-12l-7,11l7,11h12l7-11L26.6,7z M20.6,23c-2.8,0-5-2.2-5-5s2.2-5,5-5s5,2.2,5,5S23.4,23,20.6,23z"/>
	<path class="st1" d="M31.4,1.2C30.9,0.5,30.1,0,29.2,0H12c-0.9,0-1.7,0.5-2.2,1.2L4,10.7L8.6,18l6.3-10h20.6L31.4,1.2z M12.6,5
		c-0.6,0-1-0.4-1-1c0-0.6,0.4-1,1-1c0.6,0,1,0.4,1,1C13.6,4.6,13.2,5,12.6,5z M28.6,5c-0.6,0-1-0.4-1-1c0-0.6,0.4-1,1-1s1,0.4,1,1
		C29.6,4.6,29.2,5,28.6,5z"/>
	<path class="st2" d="M14.9,28L4,10.8l-3.6,5.9c-0.5,0.8-0.5,1.9,0,2.7l9.4,15.4c0.5,0.8,1.3,1.2,2.2,1.2h9.1l5.1-8H14.9z M4.6,19
		c-0.6,0-1-0.4-1-1s0.4-1,1-1c0.6,0,1,0.4,1,1S5.2,19,4.6,19z M12.6,33c-0.6,0-1-0.4-1-1s0.4-1,1-1c0.6,0,1,0.4,1,1S13.2,33,12.6,33
		z"/>
	<path class="st3" d="M4,10.8L8.6,18l2.4-3.7L5.1,9L4,10.8z"/>
	<path class="st4" d="M21.2,36l5.1-8h-4.8l-2.3,8H21.2z"/>
	<path class="st5" d="M40.8,16.7L35.5,8h-9.2l6.3,10L21.2,36h8c0.9,0,1.7-0.5,2.2-1.2l9.5-15.4C41.4,18.5,41.4,17.5,40.8,16.7z
		 M28.6,33c-0.6,0-1-0.4-1-1s0.4-1,1-1s1,0.4,1,1S29.2,33,28.6,33z M36.6,19c-0.6,0-1-0.4-1-1s0.4-1,1-1s1,0.4,1,1S37.2,19,36.6,19z
		"/>
	<path class="st6" d="M35.5,8h-9.2l2.5,3.9l7.9-1.9L35.5,8z"/>
</g>
</svg>
