<?xml version="1.0" encoding="utf-8"?>
<!-- Generator: Adobe Illustrator 23.0.1, SVG Export Plug-In . SVG Version: 6.00 Build 0)  -->
<svg version="1.1" id="Layer_1" xmlns="http://www.w3.org/2000/svg" xmlns:xlink="http://www.w3.org/1999/xlink" x="0px" y="0px"
	 viewBox="0 0 63.6 142.1" style="enable-background:new 0 0 63.6 142.1;" xml:space="preserve">
<style type="text/css">
	.st0{fill-rule:evenodd;clip-rule:evenodd;fill:#FFFFFF;}
	.st1{fill-rule:evenodd;clip-rule:evenodd;fill:#A6A385;}
	.st2{fill-rule:evenodd;clip-rule:evenodd;fill:#499D4A;}
	.st3{fill-rule:evenodd;clip-rule:evenodd;fill:#58AA50;}
</style>
<g>
	<g>
		<g>
			<path class="st0" d="M35.1,142.1l-3.8-1.3c0,0,0.5-19.3-6.5-20.7c-4.6-5.4,0.7-227,17.3-0.7c0,0-5.7,2.9-6.7,7.8
				C34.3,132,35.1,142.1,35.1,142.1L35.1,142.1L35.1,142.1z"/>
			<path class="st1" d="M35.1,142.1l-3.8-1.3c0,0,0.5-19.3-6.5-20.7c-4.6-5.4,0.7-227,17.3-0.7c0,0-5.7,2.9-6.7,7.8
				C34.3,132,35.1,142.1,35.1,142.1L35.1,142.1L35.1,142.1z"/>
			<path class="st0" d="M37.1,123.5c0,0,33.1-21.8,25.4-67.1C55,23.4,37.4,12.6,35.4,8.5c-2.1-3-4.2-8.1-4.2-8.1L32.7,92
				C32.7,92.1,29.8,120.1,37.1,123.5"/>
			<path class="st2" d="M37.1,123.5c0,0,33.1-21.8,25.4-67.1C55,23.4,37.4,12.6,35.4,8.5c-2.1-3-4.2-8.1-4.2-8.1L32.7,92
				C32.7,92.1,29.8,120.1,37.1,123.5"/>
			<path class="st0" d="M29.3,124.7c0,0-31.1-21.2-29.3-58.6C1.8,28.7,23.8,10.3,28,7c2.8-3,2.9-4.1,3-7c1.9,4.2,1.6,62.1,1.8,68.9
				C33.8,95.2,31.5,119.7,29.3,124.7L29.3,124.7L29.3,124.7z"/>
			<path class="st3" d="M29.3,124.7c0,0-31.1-21.2-29.3-58.6C1.8,28.7,23.8,10.3,28,7c2.8-3,2.9-4.1,3-7c1.9,4.2,1.6,62.1,1.8,68.9
				C33.8,95.2,31.5,119.7,29.3,124.7L29.3,124.7L29.3,124.7z"/>
		</g>
	</g>
</g>
</svg>
