<?xml version="1.0" encoding="utf-8"?>
<!-- Generator: Adobe Illustrator 23.0.1, SVG Export Plug-In . SVG Version: 6.00 Build 0)  -->
<svg version="1.1" id="Layer_1" xmlns="http://www.w3.org/2000/svg" xmlns:xlink="http://www.w3.org/1999/xlink" x="0px" y="0px"
	 viewBox="0 0 511.3 197.4" style="enable-background:new 0 0 511.3 197.4;" xml:space="preserve">
<style type="text/css">
	.st0{fill:#333333;}
	.st1{fill:#539E43;}
	.st2{fill:url(#SVGID_1_);}
	.st3{filter:url(#Adobe_OpacityMaskFilter);}
	.st4{fill:#FFFFFF;}
	.st5{mask:url(#mask-3_1_);}
	.st6{fill:none;}
	.st7{fill:url(#SVGID_2_);}
	.st8{filter:url(#Adobe_OpacityMaskFilter_1_);}
	.st9{mask:url(#mask-3_2_);}
	.st10{fill-rule:evenodd;clip-rule:evenodd;fill:url(#SVGID_3_);}
	.st11{fill-rule:evenodd;clip-rule:evenodd;fill:url(#SVGID_4_);}
	.st12{fill-rule:evenodd;clip-rule:evenodd;fill:url(#SVGID_5_);}
	.st13{fill-rule:evenodd;clip-rule:evenodd;fill:url(#SVGID_6_);}
	.st14{fill-rule:evenodd;clip-rule:evenodd;fill:url(#SVGID_7_);}
</style>
<g>
	<path class="st0" d="M109.8,104.7c0-2.1-1.2-4-3-5.1l-49-28.2c-0.8-0.5-1.7-0.7-2.7-0.8h-0.5c-0.9,0-1.8,0.3-2.7,0.8L3,99.6
		c-1.8,1-3,3-3,5.1l0.1,75.8c0,1,0.6,2.1,1.5,2.5c0.9,0.6,2.1,0.6,2.9,0l29.1-16.6c1.8-1,3-3,3-5.1v-35.5c0-2.1,1.2-4,3-5.1
		l12.4-7.2c0.9-0.6,2-0.8,3-0.8s2.1,0.2,2.9,0.8l12.4,7.2c1.8,1,3,3,3,5.1v35.5c0,2.1,1.2,4,3,5.1l29.1,16.6c0.9,0.6,2.1,0.6,3,0
		c0.9-0.5,1.5-1.5,1.5-2.5L109.8,104.7L109.8,104.7z"/>
	<path class="st0" d="M345.3,0.3c-0.9-0.5-2.1-0.5-2.9,0c-0.9,0.6-1.5,1.5-1.5,2.5V78c0,0.7-0.3,1.4-1,1.8c-0.7,0.3-1.4,0.3-2.1,0
		l-12.3-7.1c-1.8-1-4-1-5.9,0l-49,28.3c-1.8,1-3,3-3,5.1v56.5c0,2.1,1.2,4,3,5.1l49,28.3c1.8,1,4,1,5.9,0l49-28.3c1.8-1,3-3,3-5.1
		V21.8c0-2.2-1.2-4.2-3-5.2L345.3,0.3L345.3,0.3z M340.8,144.1c0,0.6-0.2,1-0.7,1.3l-16.8,9.7c-0.5,0.2-1,0.2-1.5,0l-16.8-9.7
		c-0.5-0.2-0.7-0.8-0.7-1.3v-19.4c0-0.6,0.2-1,0.7-1.3l16.8-9.7c0.5-0.2,1-0.2,1.5,0l16.8,9.7c0.5,0.2,0.7,0.8,0.7,1.3V144.1
		L340.8,144.1z"/>
	<g transform="translate(401.047404, 70.501129)">
		<path class="st0" d="M107.4,53.7c1.8-1,2.9-3,2.9-5.1V34.9c0-2.1-1.2-4-2.9-5.1L58.7,1.6c-1.8-1-4-1-5.9,0l-49,28.3
			c-1.8,1-3,3-3,5.1v56.5c0,2.1,1.2,4,3,5.1l48.7,27.7c1.8,1,4,1,5.8,0l29.5-16.4c0.9-0.5,1.5-1.5,1.5-2.5c0-1-0.6-2.1-1.5-2.5
			L38.5,74.5C37.6,74,37,73,37,72V54.3c0-1,0.6-2.1,1.5-2.5L53.9,43c0.9-0.6,2.1-0.6,3,0l15.4,8.8c0.9,0.6,1.5,1.5,1.5,2.5v13.9
			c0,1,0.6,2.1,1.5,2.5c0.9,0.6,2.1,0.6,3,0L107.4,53.7L107.4,53.7z"/>
		<path class="st1" d="M55,51.1c0.3-0.2,0.8-0.2,1.2,0l9.4,5.4c0.3,0.2,0.6,0.6,0.6,1v10.9c0,0.5-0.2,0.8-0.6,1l-9.4,5.4
			c-0.3,0.2-0.8,0.2-1.2,0l-9.4-5.4c-0.3-0.2-0.6-0.6-0.6-1V57.6c0-0.5,0.2-0.8,0.6-1L55,51.1L55,51.1z"/>
	</g>
	<g transform="translate(134.067720, 70.501129)">
		<g>
			
				<linearGradient id="SVGID_1_" gradientUnits="userSpaceOnUse" x1="-830.1669" y1="624.2481" x2="-830.5706" y2="623.5254" gradientTransform="matrix(108.9878 0 0 -124.186 90552.6016 77545.6406)">
				<stop  offset="0" style="stop-color:#41873F"/>
				<stop  offset="0.3288" style="stop-color:#418B3D"/>
				<stop  offset="0.6352" style="stop-color:#419637"/>
				<stop  offset="0.9319" style="stop-color:#3FA92D"/>
				<stop  offset="1" style="stop-color:#3FAE2A"/>
			</linearGradient>
			<path class="st2" d="M57.7,1.8c-1.8-1-4-1-5.9,0L3.1,29.9c-1.8,1-2.9,3-2.9,5.1v56.3c0,2.1,1.2,4,2.9,5.1l48.7,28.1
				c1.8,1,4,1,5.9,0l48.7-28.1c1.8-1,2.9-3,2.9-5.1V35c0-2.1-1.2-4-2.9-5.1L57.7,1.8L57.7,1.8z"/>
		</g>
		<defs>
			<filter id="Adobe_OpacityMaskFilter" filterUnits="userSpaceOnUse" x="-0.2" y="1.1" width="109.8" height="124.4">
				<feColorMatrix  type="matrix" values="1 0 0 0 0  0 1 0 0 0  0 0 1 0 0  0 0 0 1 0"/>
			</filter>
		</defs>
		<mask maskUnits="userSpaceOnUse" x="-0.2" y="1.1" width="109.8" height="124.4" id="mask-3_1_">
			<g class="st3">
				<path id="path-2_1_" class="st4" d="M57.7,1.8c-1.8-1-4-1-5.9,0L3.1,29.9c-1.8,1-2.9,3-2.9,5.1v56.3c0,2.1,1.2,4,2.9,5.1
					l48.7,28.1c1.8,1,4,1,5.9,0l48.7-28.1c1.8-1,2.9-3,2.9-5.1V35c0-2.1-1.2-4-2.9-5.1L57.7,1.8L57.7,1.8z"/>
			</g>
		</mask>
		<g class="st5">
			<path class="st6" d="M51.7,1.8L2.9,29.9c-1.8,1-3.1,3-3.1,5.1v56.3c0,1.4,0.6,2.7,1.5,3.7L56.1,1.2C54.7,0.9,53,1,51.7,1.8
				L51.7,1.8z"/>
			<path class="st6" d="M56.4,125.1c0.5-0.1,0.9-0.3,1.4-0.6l48.8-28.1c1.8-1,3-3,3-5.1V35c0-1.5-0.7-3-1.7-4L56.4,125.1L56.4,125.1
				z"/>
			
				<linearGradient id="SVGID_2_" gradientUnits="userSpaceOnUse" x1="-830.2618" y1="623.8699" x2="-829.1021" y2="624.6046" gradientTransform="matrix(106.4452 0 0 -124.1327 88424.6797 77512.3906)">
				<stop  offset="0.1376" style="stop-color:#41873F"/>
				<stop  offset="0.4032" style="stop-color:#54A044"/>
				<stop  offset="0.7136" style="stop-color:#66B848"/>
				<stop  offset="0.9081" style="stop-color:#6CC04A"/>
			</linearGradient>
			<path class="st7" d="M106.4,29.9L57.6,1.8c-0.5-0.2-1-0.5-1.5-0.6L1.3,95.1c0.5,0.6,1,1,1.6,1.4l48.9,28.1c1.4,0.8,3,1,4.5,0.6
				l51.4-94.1C107.4,30.6,106.9,30.3,106.4,29.9L106.4,29.9z"/>
		</g>
		<defs>
			<filter id="Adobe_OpacityMaskFilter_1_" filterUnits="userSpaceOnUse" x="-0.2" y="-8.4" width="111.3" height="135.3">
				<feColorMatrix  type="matrix" values="1 0 0 0 0  0 1 0 0 0  0 0 1 0 0  0 0 0 1 0"/>
			</filter>
		</defs>
		<mask maskUnits="userSpaceOnUse" x="-0.2" y="-8.4" width="111.3" height="135.3" id="mask-3_2_">
			<g class="st8">
				<path id="path-2_2_" class="st4" d="M57.7,1.8c-1.8-1-4-1-5.9,0L3.1,29.9c-1.8,1-2.9,3-2.9,5.1v56.3c0,2.1,1.2,4,2.9,5.1
					l48.7,28.1c1.8,1,4,1,5.9,0l48.7-28.1c1.8-1,2.9-3,2.9-5.1V35c0-2.1-1.2-4-2.9-5.1L57.7,1.8L57.7,1.8z"/>
			</g>
		</mask>
		<g class="st9">
			<g transform="translate(0.000000, -9.246050)">
				<path class="st6" d="M109.6,100.6V44.3c0-2.1-1.3-4-3.1-5.1L57.6,11.1c-0.6-0.3-1.2-0.6-1.8-0.7l53.5,91.4
					C109.5,101.5,109.6,101,109.6,100.6L109.6,100.6z"/>
				<path class="st6" d="M2.9,39.2c-1.8,1-3.1,3-3.1,5.1v56.3c0,2.1,1.4,4,3.1,5.1l48.9,28.1c1.2,0.7,2.4,0.9,3.8,0.7L3.2,39.1
					L2.9,39.2L2.9,39.2z"/>
				
					<linearGradient id="SVGID_3_" gradientUnits="userSpaceOnUse" x1="-121.113" y1="-465.4868" x2="-23.696" y2="-465.4868" gradientTransform="matrix(0.9246 0 0 -0.3467 120.6382 -160.4144)">
					<stop  offset="9.191646e-02" style="stop-color:#6CC04A"/>
					<stop  offset="0.2864" style="stop-color:#66B848"/>
					<stop  offset="0.5968" style="stop-color:#54A044"/>
					<stop  offset="0.8624" style="stop-color:#41873F"/>
				</linearGradient>
				<path class="st10" d="M50.2,0.8l-0.7,0.3h0.9L50.2,0.8z"/>
				
					<linearGradient id="SVGID_4_" gradientUnits="userSpaceOnUse" x1="-830.7313" y1="633.17" x2="-829.6724" y2="633.17" gradientTransform="matrix(106.3296 0 0 -124.2334 88329.75 78733.2734)">
					<stop  offset="9.191646e-02" style="stop-color:#6CC04A"/>
					<stop  offset="0.2864" style="stop-color:#66B848"/>
					<stop  offset="0.5968" style="stop-color:#54A044"/>
					<stop  offset="0.8624" style="stop-color:#41873F"/>
				</linearGradient>
				<path class="st11" d="M106.6,105.6c1.4-0.8,2.4-2.2,2.9-3.7L55.8,10.4c-1.4-0.2-2.9-0.1-4.2,0.7l-48.5,28l52.4,95.5
					c0.7-0.1,1.5-0.3,2.2-0.7L106.6,105.6L106.6,105.6z"/>
				
					<linearGradient id="SVGID_5_" gradientUnits="userSpaceOnUse" x1="1093.1041" y1="164.0737" x2="1190.5211" y2="164.0737" gradientTransform="matrix(0.3467 0 0 -0.809 -301.9657 237.2785)">
					<stop  offset="9.191646e-02" style="stop-color:#6CC04A"/>
					<stop  offset="0.2864" style="stop-color:#66B848"/>
					<stop  offset="0.5968" style="stop-color:#54A044"/>
					<stop  offset="0.8624" style="stop-color:#41873F"/>
				</linearGradient>
				<path class="st12" d="M111.1,104.7l-0.3-0.6v0.8L111.1,104.7z"/>
				
					<linearGradient id="SVGID_6_" gradientUnits="userSpaceOnUse" x1="-825.5589" y1="625.1163" x2="-823.5123" y2="625.1163" gradientTransform="matrix(55.014 0 0 -34.326 45415.75 21576.707)">
					<stop  offset="9.191646e-02" style="stop-color:#6CC04A"/>
					<stop  offset="0.2864" style="stop-color:#66B848"/>
					<stop  offset="0.5968" style="stop-color:#54A044"/>
					<stop  offset="0.8624" style="stop-color:#41873F"/>
				</linearGradient>
				<path class="st13" d="M106.6,105.6l-48.8,28.1c-0.7,0.3-1.4,0.6-2.2,0.7l0.9,1.7l54.1-31.3v-0.7l-1.4-2.3
					C109,103.4,107.9,104.8,106.6,105.6L106.6,105.6z"/>
				
					<linearGradient id="SVGID_7_" gradientUnits="userSpaceOnUse" x1="-823.2159" y1="627.7275" x2="-824.4781" y2="623.6008" gradientTransform="matrix(55.014 0 0 -34.326 45415.75 21576.707)">
					<stop  offset="0" style="stop-color:#41873F"/>
					<stop  offset="0.3288" style="stop-color:#418B3D"/>
					<stop  offset="0.6352" style="stop-color:#419637"/>
					<stop  offset="0.9319" style="stop-color:#3FA92D"/>
					<stop  offset="1" style="stop-color:#3FAE2A"/>
				</linearGradient>
				<path class="st14" d="M106.6,105.6l-48.8,28.1c-0.7,0.3-1.4,0.6-2.2,0.7l0.9,1.7l54.1-31.3v-0.7l-1.4-2.3
					C109,103.4,107.9,104.8,106.6,105.6L106.6,105.6z"/>
			</g>
		</g>
	</g>
</g>
</svg>
