<svg xmlns="http://www.w3.org/2000/svg" viewBox="0 0 400 288"><defs><style>.cls-1{fill:#e06c75;}.cls-2{fill:#98c379;}.cls-3{fill:#9b9b9b;opacity:0.5;}.cls-4{fill:#c678dd;}.cls-5{fill:#56b6c2;}.cls-6{fill:#e5c07b;}</style></defs><title>dark-logo</title><g id="Layer_2" data-name="Layer 2"><g id="Layer_1-2" data-name="Layer 1"><rect class="cls-1" width="72" height="18" rx="9"/><rect class="cls-2" x="107" width="41" height="18" rx="9"/><rect class="cls-3" x="153" width="72" height="18" rx="9"/><rect class="cls-3" x="229" width="72" height="18" rx="9"/><rect class="cls-3" x="306" width="31" height="18" rx="9"/><rect class="cls-4" y="26" width="40" height="18" rx="9"/><rect class="cls-5" x="44" y="26" width="28" height="18" rx="9"/><rect class="cls-6" x="108" y="26" width="85" height="18" rx="9"/><rect class="cls-3" x="197" y="26" width="72" height="18" rx="9"/><rect class="cls-3" x="274" y="26" width="72" height="18" rx="9"/><rect class="cls-3" x="350" y="26" width="18" height="18" rx="9"/><rect class="cls-1" y="54" width="27" height="18" rx="9"/><rect class="cls-2" x="31" y="54" width="41" height="18" rx="9"/><rect class="cls-5" x="108" y="54" width="58" height="18" rx="9"/><rect class="cls-2" x="170" y="54" width="72" height="18" rx="9"/><rect class="cls-3" x="247" y="54" width="72" height="18" rx="9"/><rect class="cls-3" x="323" y="54" width="63" height="18" rx="9"/><rect class="cls-4" y="80" width="72" height="18" rx="9"/><rect class="cls-3" x="319" y="80" width="49" height="18" rx="9"/><rect class="cls-6" y="108" width="31" height="18" rx="9"/><rect class="cls-5" x="35" y="108" width="37" height="18" rx="9"/><rect class="cls-3" x="323" y="108" width="77" height="18" rx="9"/><rect class="cls-1" y="134" width="72" height="18" rx="9"/><rect class="cls-5" x="108" y="134" width="45" height="18" rx="9"/><rect class="cls-1" x="157" y="134" width="54" height="18" rx="9"/><rect class="cls-3" x="256" y="134" width="58" height="18" rx="9"/><rect class="cls-3" x="319" y="134" width="72" height="18" rx="9"/><rect class="cls-6" y="162" width="40" height="18" rx="9"/><rect class="cls-1" x="45" y="162" width="27" height="18" rx="9"/><rect class="cls-6" x="135" y="162" width="63" height="18" rx="9"/><rect class="cls-3" x="202" y="162" width="36" height="18" rx="9"/><rect class="cls-3" x="279" y="162" width="35" height="18" rx="9"/><rect class="cls-3" x="319" y="162" width="58" height="18" rx="9"/><rect class="cls-1" y="188" width="27" height="18" rx="9"/><rect class="cls-4" x="31" y="188" width="41" height="18" rx="9"/><rect class="cls-2" x="161" y="188" width="72" height="18" rx="9"/><rect class="cls-3" x="238" y="188" width="27" height="18" rx="9"/><rect class="cls-3" x="305" y="188" width="41" height="18" rx="9"/><rect class="cls-5" y="216" width="58" height="18" rx="9"/><rect class="cls-6" x="62" y="216" width="37" height="18" rx="9"/><rect class="cls-2" x="103" y="216" width="54" height="18" rx="9"/><rect class="cls-5" x="188" y="216" width="36" height="18" rx="9"/><rect class="cls-3" x="229" y="216" width="63" height="18" rx="9"/><rect class="cls-1" y="242" width="45" height="18" rx="9"/><rect class="cls-4" x="49" y="242" width="54" height="18" rx="9"/><rect class="cls-5" x="108" y="242" width="72" height="18" rx="9"/><rect class="cls-2" x="216" y="242" width="40" height="18" rx="9"/><rect class="cls-3" x="261" y="242" width="58" height="18" rx="9"/><rect class="cls-4" y="270" width="63" height="18" rx="9"/><rect class="cls-1" x="67" y="270" width="81" height="18" rx="9"/><rect class="cls-6" x="153" y="270" width="54" height="18" rx="9"/><rect class="cls-5" x="242" y="270" width="59" height="18" rx="9"/><rect class="cls-3" x="306" y="270" width="40" height="18" rx="9"/><rect class="cls-3" x="373" y="80" width="27" height="18" rx="9"/></g></g></svg>