<?xml version="1.0" encoding="utf-8"?>
<!-- Generator: Adobe Illustrator 21.0.2, SVG Export Plug-In . SVG Version: 6.00 Build 0)  -->
<svg version="1.1" id="Layer_1" xmlns="http://www.w3.org/2000/svg" xmlns:xlink="http://www.w3.org/1999/xlink" x="0px" y="0px"
	 viewBox="0 0 255 120.3" style="enable-background:new 0 0 255 120.3;" xml:space="preserve">
<style type="text/css">
	.st0{fill:#00979C;}
</style>
<g>
	<path class="st0" d="M189.5,120.3c-16.3,0-30.2-5.5-42.5-16.7c-7.6-6.9-13.8-15.4-19.6-24.3c-5.7,8.8-12,17.3-19.6,24.3
		c-13.2,12.1-28.3,17.5-46.1,16.6C27.7,120.1,0,93.2,0,60.1C0,27,27.8,0,62.1,0c18.7,0,34.5,6.2,48.2,19
		c6.6,6.1,12.1,13.2,17.2,20.7c5.1-7.4,10.6-14.5,17.2-20.7c13.7-12.8,29.5-19,48.2-19C227.2,0,255,27,255,60.1
		c0,33.1-27.7,60-61.8,60.1C192,120.3,190.7,120.3,189.5,120.3L189.5,120.3z M140,59.3c6.8,11,13.4,21.3,21.4,28.6
		c9.1,8.3,18.6,11.7,31,11.1l0.6,0c22.5,0,40.9-17.4,40.9-38.9c0-21.4-18.3-38.9-40.9-38.9c-13.3,0-24,4.2-33.8,13.3
		C151.9,41.2,145.9,49.9,140,59.3L140,59.3z M62.1,21.2c-22.5,0-40.9,17.5-40.9,38.9C21.2,81.6,39.5,99,62.1,99l0.6,0
		c12.4,0.7,21.9-2.8,31-11.1c8-7.4,14.6-17.6,21.4-28.6c-5.9-9.4-11.9-18.1-19.2-24.8C86.1,25.4,75.4,21.2,62.1,21.2L62.1,21.2z"/>
	<path class="st0" d="M195.7,52.4V40.9h-12v11.5h-11.5v11.9h11.5v11.6h12V64.3h11.5V52.4H195.7"/>
	<path class="st0" d="M44.9,52.3h37.8v12.3H44.9V52.3z"/>
</g>
</svg>
