<?xml version="1.0" encoding="utf-8"?>
<!-- Generator: Adobe Illustrator 21.0.2, SVG Export Plug-In . SVG Version: 6.00 Build 0)  -->
<svg version="1.1" id="Layer_1" xmlns="http://www.w3.org/2000/svg" xmlns:xlink="http://www.w3.org/1999/xlink" x="0px" y="0px"
	 viewBox="0 0 318 318" style="enable-background:new 0 0 318 318;" xml:space="preserve">
<style type="text/css">
	.st0{fill:#373741;}
	.st1{fill:#15DFFF;}
</style>
<circle class="st0" cx="159" cy="159" r="159"/>
<g>
	<path class="st1" d="M123.3,76.6C87.1,70,58.4,77,47,96.7c-8.5,14.8-6.1,34.4,5.9,55.3c1,1.8,3.3,2.4,5.1,1.4
		c1.8-1,2.4-3.3,1.4-5.1c-10.8-18.9-12.9-35.8-5.9-47.9C62.9,84,88.5,77.9,122,84c2,0.4,4-1,4.3-3C126.7,78.9,125.3,77,123.3,76.6
		L123.3,76.6L123.3,76.6z M176.9,43c-3,5.7-8.9,9.6-15.8,9.6c-9.8,0-17.8-8-17.8-17.8s8-17.8,17.8-17.8s17.8,8,17.8,17.8
		c0,0.3,0,0.5,0,0.8c29.5,15.2,49.9,67.2,49.9,127.2c0,24.7-3.5,48.4-9.9,68.9c-0.6,2-2.7,3.1-4.7,2.4s-3.1-2.7-2.4-4.7
		c6.2-19.8,9.5-42.7,9.5-66.7C221.4,106.3,202.6,57.6,176.9,43z M49.5,210.3c0.4,0,0.9,0,1.3,0c9.8,0,17.8,8,17.8,17.8
		s-8,17.8-17.8,17.8s-17.8-8-17.8-17.8c0-6.7,3.7-12.5,9.2-15.6c-2.7-33.3,32.3-77.9,85.1-108.4c21.9-12.7,44.8-21.7,66.3-26.3
		c2-0.4,4,0.8,4.4,2.9c0.4,2-0.8,4-2.9,4.4c-20.7,4.4-42.8,13.1-64.1,25.4C81.2,139.3,48.3,180.7,49.5,210.3z M255.7,236.9
		c-1.5-2.6-2.3-5.6-2.3-8.8c0-9.8,8-17.8,17.8-17.8s17.8,8,17.8,17.8s-8,17.8-17.8,17.8c-3.9,0-7.5-1.2-10.4-3.3
		c-28.4,16.7-82.6,8.2-133.7-21.3c-21.7-12.5-40.8-27.7-55.4-43.8c-1.4-1.5-1.3-3.9,0.2-5.3c1.5-1.4,3.9-1.3,5.3,0.2
		c14.1,15.5,32.6,30.2,53.7,42.3C179,242.6,229.8,250.9,255.7,236.9L255.7,236.9z M254.6,173c-1.3,1.6-3.7,1.8-5.2,0.4
		c-1.6-1.3-1.8-3.7-0.4-5.2c21.9-25.9,29.3-51.1,19.9-67.5c-6.9-11.9-22.2-18.5-43.4-18.8c-2.1,0-3.7-1.7-3.7-3.8
		c0-2.1,1.7-3.7,3.8-3.7c23.6,0.3,41.3,8,49.7,22.5C286.6,116.7,278.3,144.9,254.6,173z M105.6,238.5c-0.7-1.9,0.3-4.1,2.2-4.8
		c1.9-0.7,4.1,0.3,4.8,2.2c11.5,32,29.6,51.1,48.6,51.1c13.6,0,26.9-9.8,37.7-27.7c1.1-1.8,3.3-2.3,5.1-1.3c1.8,1.1,2.3,3.3,1.3,5.1
		c-12,20-27.4,31.3-44.1,31.3C138.3,294.5,118,273.2,105.6,238.5z M281.6,228.1c0-5.7-4.6-10.4-10.4-10.4s-10.4,4.6-10.4,10.4
		s4.6,10.4,10.4,10.4S281.6,233.8,281.6,228.1z M50.8,238.4c5.7,0,10.4-4.6,10.4-10.4s-4.6-10.4-10.4-10.4s-10.4,4.6-10.4,10.4
		S45.1,238.4,50.8,238.4z M161.1,45.2c5.7,0,10.4-4.6,10.4-10.4s-4.6-10.4-10.4-10.4s-10.4,4.6-10.4,10.4S155.4,45.2,161.1,45.2z
		 M163.8,175.4c-7,1.5-13.8-2.9-15.3-9.9c-1.5-7,2.9-13.8,9.9-15.3c7-1.5,13.8,2.9,15.3,9.9C175.2,167,170.8,173.9,163.8,175.4z"/>
</g>
</svg>
