<?xml version="1.0" encoding="utf-8"?>
<!-- Generator: Adobe Illustrator 21.0.2, SVG Export Plug-In . SVG Version: 6.00 Build 0)  -->
<svg version="1.1" id="Layer_1" xmlns="http://www.w3.org/2000/svg" xmlns:xlink="http://www.w3.org/1999/xlink" x="0px" y="0px"
	 viewBox="0 0 48 48" style="enable-background:new 0 0 48 48;" xml:space="preserve">
<style type="text/css">
	.st0{fill:none;}
	.st1{fill:#FFFFFF;}
</style>
<path class="st0" d="M0,0h48v48H0V0z"/>
<path class="st1" d="M13.3,21.6c2.9,5.7,7.5,10.3,13.2,13.2l4.4-4.4c0.5-0.5,1.3-0.7,2-0.5c2.2,0.7,4.6,1.1,7.1,1.1c1.1,0,2,0.9,2,2
	v7c0,1.1-0.9,2-2,2C21.2,42,6,26.8,6,8c0-1.1,0.9-2,2-2h7c1.1,0,2,0.9,2,2c0,2.5,0.4,4.9,1.1,7.1c0.2,0.7,0.1,1.5-0.5,2L13.3,21.6z"
	/>
</svg>
