<svg xmlns="http://www.w3.org/2000/svg" xmlns:xlink="http://www.w3.org/1999/xlink" viewBox="0 0 1139.88 322.41">
  <defs>
    <style>
      .cls-1, .cls-2, .cls-3 {
        stroke: #000;
        stroke-miterlimit: 10;
      }

      .cls-2 {
        opacity: 0.05;
      }

      .cls-3 {
        opacity: 0.25;
      }

      .cls-4 {
        font-size: 15.08px;
      }

      .cls-4, .cls-9 {
        font-family: Roboto-Light, Roboto;
        font-weight: 300;
      }

      .cls-5 {
        letter-spacing: 0.02em;
      }

      .cls-6 {
        letter-spacing: 0em;
      }

      .cls-7 {
        letter-spacing: -0.01em;
      }

      .cls-8 {
        letter-spacing: -0.02em;
      }

      .cls-9 {
        font-size: 17px;
      }

      .cls-10 {
        letter-spacing: -0.01em;
      }

      .cls-11 {
        letter-spacing: -0.02em;
      }

      .cls-12 {
        letter-spacing: -0.01em;
      }

      .cls-13 {
        letter-spacing: -0.02em;
      }

      .cls-14 {
        letter-spacing: -0.01em;
      }

      .cls-15 {
        fill: url(#linear-gradient);
      }

      .cls-16 {
        fill: url(#linear-gradient-2);
      }

      .cls-17 {
        fill: url(#linear-gradient-3);
      }

      .cls-18 {
        fill: url(#linear-gradient-4);
      }

      .cls-19 {
        fill: url(#linear-gradient-5);
      }

      .cls-20 {
        fill: url(#linear-gradient-6);
      }

      .cls-21 {
        fill: url(#linear-gradient-7);
      }

      .cls-22 {
        fill: url(#linear-gradient-8);
      }

      .cls-23 {
        fill: url(#linear-gradient-9);
      }

      .cls-24 {
        fill: url(#linear-gradient-10);
      }

      .cls-25 {
        fill: url(#linear-gradient-11);
      }

      .cls-26 {
        fill: url(#linear-gradient-12);
      }

      .cls-27 {
        fill: #e23237;
      }

      .cls-28 {
        fill: #b52e31;
      }

      .cls-29, .cls-50 {
        fill: #fff;
      }

      .cls-30 {
        fill: #364548;
      }

      .cls-30, .cls-31, .cls-32, .cls-33, .cls-34, .cls-35, .cls-36, .cls-37, .cls-38, .cls-50, .cls-51, .cls-52, .cls-53, .cls-59, .cls-60, .cls-61, .cls-62, .cls-63 {
        fill-rule: evenodd;
      }

      .cls-31 {
        fill: #22a0c8;
      }

      .cls-32 {
        fill: #37b1d9;
      }

      .cls-33 {
        fill: #1b81a5;
      }

      .cls-34 {
        fill: #1d91b4;
      }

      .cls-35 {
        fill: #23a3c2;
      }

      .cls-36 {
        fill: #34bbde;
      }

      .cls-37 {
        fill: #d3ecec;
      }

      .cls-38 {
        fill: #bdd9d7;
      }

      .cls-39 {
        fill: #47848f;
      }

      .cls-40 {
        fill: #de4c36;
      }

      .cls-41 {
        fill: #cfd8dc;
      }

      .cls-42 {
        fill: #2196f3;
      }

      .cls-43 {
        fill: #ffc107;
      }

      .cls-44 {
        fill: #1976d2;
      }

      .cls-45 {
        fill: #f9a825;
      }

      .cls-46 {
        fill: #dd2c00;
      }

      .cls-47 {
        fill: #bf360c;
      }

      .cls-48 {
        fill: #4e8ef7;
      }

      .cls-49 {
        fill: #326de6;
      }

      .cls-51 {
        fill: #a6a385;
      }

      .cls-52 {
        fill: #499d4a;
      }

      .cls-53 {
        fill: #58aa50;
      }

      .cls-54 {
        fill: #333;
      }

      .cls-55 {
        fill: #539e43;
      }

      .cls-56 {
        fill: url(#linear-gradient-13);
      }

      .cls-57 {
        fill: none;
      }

      .cls-58 {
        fill: url(#linear-gradient-14);
      }

      .cls-59 {
        fill: url(#linear-gradient-15);
      }

      .cls-60 {
        fill: url(#linear-gradient-16);
      }

      .cls-61 {
        fill: url(#linear-gradient-17);
      }

      .cls-62 {
        fill: url(#linear-gradient-18);
      }

      .cls-63 {
        fill: url(#linear-gradient-19);
      }

      .cls-64 {
        fill: #336791;
      }

      .cls-65 {
        fill: #f7df1e;
      }

      .cls-66 {
        fill: #007acc;
      }

      .cls-67 {
        fill: #f6d2a2;
      }

      .cls-68 {
        fill: #69d7e2;
      }

      .cls-69 {
        fill: #231f20;
      }

      .cls-70, .cls-76 {
        font-size: 13px;
        font-family: Roboto-Thin, Roboto;
        font-weight: 200;
      }

      .cls-71 {
        letter-spacing: -0.04em;
      }

      .cls-72 {
        letter-spacing: -0.01em;
      }

      .cls-73 {
        letter-spacing: -0.01em;
      }

      .cls-74 {
        letter-spacing: -0.01em;
      }

      .cls-75 {
        letter-spacing: -0.01em;
      }

      .cls-76 {
        letter-spacing: -0.01em;
      }

      .cls-77 {
        letter-spacing: 0em;
      }
    </style>
    <linearGradient id="linear-gradient" x1="135.88" y1="63.66" x2="135.88" y2="239.48" gradientUnits="userSpaceOnUse">
      <stop offset="0" stop-color="#ab58c4"/>
      <stop offset="1" stop-color="#783b8a"/>
    </linearGradient>
    <linearGradient id="linear-gradient-2" x1="215.88" y1="171.9" x2="215.88" y2="239.48" xlink:href="#linear-gradient"/>
    <linearGradient id="linear-gradient-3" x1="315.88" y1="144.81" x2="315.88" y2="239.48" xlink:href="#linear-gradient"/>
    <linearGradient id="linear-gradient-4" x1="394.88" y1="90.9" x2="394.88" y2="239.48" xlink:href="#linear-gradient"/>
    <linearGradient id="linear-gradient-5" x1="495.88" y1="63.66" x2="495.88" y2="239.48" xlink:href="#linear-gradient"/>
    <linearGradient id="linear-gradient-6" x1="655.88" y1="66.37" x2="655.88" y2="239.48" xlink:href="#linear-gradient"/>
    <linearGradient id="linear-gradient-7" x1="735.88" y1="131.9" x2="735.88" y2="239.48" xlink:href="#linear-gradient"/>
    <linearGradient id="linear-gradient-8" x1="575.88" y1="84.63" x2="575.88" y2="239.48" xlink:href="#linear-gradient"/>
    <linearGradient id="linear-gradient-9" x1="835.88" y1="77.86" x2="835.88" y2="239.48" xlink:href="#linear-gradient"/>
    <linearGradient id="linear-gradient-10" x1="935.88" y1="104.9" x2="935.88" y2="239.48" xlink:href="#linear-gradient"/>
    <linearGradient id="linear-gradient-11" x1="1015.88" y1="90.9" x2="1015.88" y2="239.48" xlink:href="#linear-gradient"/>
    <linearGradient id="linear-gradient-12" x1="1095.88" y1="104.9" x2="1095.88" y2="239.48" xlink:href="#linear-gradient"/>
    <linearGradient id="linear-gradient-13" x1="-988.48" y1="189.51" x2="-988.53" y2="189.6" gradientTransform="translate(108301.76 -23232.37) scale(108.99 124.19)" gradientUnits="userSpaceOnUse">
      <stop offset="0" stop-color="#41873f"/>
      <stop offset="0.33" stop-color="#418b3d"/>
      <stop offset="0.64" stop-color="#419637"/>
      <stop offset="0.93" stop-color="#3fa92d"/>
      <stop offset="1" stop-color="#3fae2a"/>
    </linearGradient>
    <linearGradient id="linear-gradient-14" x1="-988.23" y1="189.56" x2="-988.09" y2="189.46" gradientTransform="translate(105759.08 -23222.45) scale(106.45 124.13)" gradientUnits="userSpaceOnUse">
      <stop offset="0.14" stop-color="#41873f"/>
      <stop offset="0.4" stop-color="#54a044"/>
      <stop offset="0.71" stop-color="#66b848"/>
      <stop offset="0.91" stop-color="#6cc04a"/>
    </linearGradient>
    <linearGradient id="linear-gradient-15" x1="345.2" y1="2733.91" x2="357.53" y2="2733.91" gradientTransform="translate(242.41 -650.05) scale(0.92 0.35)" gradientUnits="userSpaceOnUse">
      <stop offset="0.09" stop-color="#6cc04a"/>
      <stop offset="0.29" stop-color="#66b848"/>
      <stop offset="0.6" stop-color="#54a044"/>
      <stop offset="0.86" stop-color="#41873f"/>
    </linearGradient>
    <linearGradient id="linear-gradient-16" x1="-988.3" y1="180.3" x2="-988.16" y2="180.3" gradientTransform="translate(105645.3 -22092.37) scale(106.33 124.23)" xlink:href="#linear-gradient-15"/>
    <linearGradient id="linear-gradient-17" x1="2436.39" y1="1159.07" x2="2448.73" y2="1159.07" gradientTransform="translate(-274.46 -626.78) scale(0.35 0.81)" xlink:href="#linear-gradient-15"/>
    <linearGradient id="linear-gradient-18" x1="-977.94" y1="196.51" x2="-977.68" y2="196.51" gradientTransform="translate(54360.64 -6432.81) scale(55.01 34.33)" xlink:href="#linear-gradient-15"/>
    <linearGradient id="linear-gradient-19" x1="-977.64" y1="196.18" x2="-977.8" y2="196.71" gradientTransform="translate(54360.64 -6432.81) scale(55.01 34.33)" xlink:href="#linear-gradient-13"/>
  </defs>
  <g id="X_Grid" data-name="X Grid">
    <g>
      <line class="cls-1" x1="1139.88" y1="239.82" x2="85.88" y2="239.82"/>
      <line class="cls-2" x1="1139.88" y1="226.3" x2="85.88" y2="226.3"/>
      <line class="cls-2" x1="1139.88" y1="212.77" x2="85.88" y2="212.77"/>
      <line class="cls-2" x1="1139.88" y1="199.25" x2="85.88" y2="199.25"/>
      <line class="cls-2" x1="1139.88" y1="185.72" x2="85.88" y2="185.72"/>
      <line class="cls-2" x1="1139.88" y1="172.2" x2="85.88" y2="172.2"/>
      <line class="cls-2" x1="1139.88" y1="158.67" x2="85.88" y2="158.67"/>
      <line class="cls-2" x1="1139.88" y1="145.15" x2="85.88" y2="145.15"/>
      <line class="cls-2" x1="1139.88" y1="131.63" x2="85.88" y2="131.63"/>
      <line class="cls-2" x1="1139.88" y1="118.1" x2="85.88" y2="118.1"/>
      <line class="cls-2" x1="1139.88" y1="104.58" x2="85.88" y2="104.58"/>
      <line class="cls-2" x1="1139.88" y1="91.05" x2="85.88" y2="91.05"/>
      <line class="cls-2" x1="1139.88" y1="77.53" x2="85.88" y2="77.53"/>
      <line class="cls-2" x1="1139.88" y1="64" x2="85.88" y2="64"/>
    </g>
  </g>
  <g id="Y_Grid" data-name="Y Grid">
    <g>
      <line class="cls-1" x1="86.38" y1="56.9" x2="86.38" y2="238.81"/>
      <line class="cls-2" x1="106.38" y1="56.9" x2="106.38" y2="238.81"/>
      <line class="cls-2" x1="126.38" y1="56.9" x2="126.38" y2="238.81"/>
      <line class="cls-2" x1="146.38" y1="56.9" x2="146.38" y2="238.81"/>
      <line class="cls-2" x1="166.38" y1="56.9" x2="166.38" y2="238.81"/>
      <line class="cls-2" x1="186.38" y1="56.9" x2="186.38" y2="238.81"/>
      <line class="cls-2" x1="206.38" y1="56.9" x2="206.38" y2="238.81"/>
      <line class="cls-2" x1="226.38" y1="56.9" x2="226.38" y2="238.81"/>
      <line class="cls-2" x1="246.38" y1="56.9" x2="246.38" y2="238.81"/>
      <line class="cls-3" x1="266.38" y1="56.9" x2="266.38" y2="238.81"/>
      <line class="cls-2" x1="286.38" y1="56.9" x2="286.38" y2="238.81"/>
      <line class="cls-2" x1="306.38" y1="56.9" x2="306.38" y2="238.81"/>
      <line class="cls-2" x1="326.38" y1="56.9" x2="326.38" y2="238.81"/>
      <line class="cls-2" x1="346.38" y1="56.9" x2="346.38" y2="238.81"/>
      <line class="cls-2" x1="366.38" y1="56.9" x2="366.38" y2="238.81"/>
      <line class="cls-2" x1="386.38" y1="56.9" x2="386.38" y2="238.81"/>
      <line class="cls-2" x1="406.38" y1="56.9" x2="406.38" y2="238.81"/>
      <line class="cls-2" x1="426.38" y1="56.9" x2="426.38" y2="238.81"/>
      <line class="cls-3" x1="446.38" y1="56.9" x2="446.38" y2="238.81"/>
      <line class="cls-2" x1="466.38" y1="56.9" x2="466.38" y2="238.81"/>
      <line class="cls-2" x1="486.38" y1="56.9" x2="486.38" y2="238.81"/>
      <line class="cls-2" x1="506.38" y1="56.9" x2="506.38" y2="238.81"/>
      <line class="cls-2" x1="526.38" y1="56.9" x2="526.38" y2="238.81"/>
      <line class="cls-2" x1="546.38" y1="56.9" x2="546.38" y2="238.81"/>
      <line class="cls-2" x1="566.38" y1="56.9" x2="566.38" y2="238.81"/>
      <line class="cls-2" x1="586.38" y1="56.9" x2="586.38" y2="238.81"/>
      <line class="cls-2" x1="606.38" y1="56.9" x2="606.38" y2="238.81"/>
      <line class="cls-2" x1="626.38" y1="56.9" x2="626.38" y2="238.81"/>
      <line class="cls-2" x1="646.38" y1="56.9" x2="646.38" y2="238.81"/>
      <line class="cls-2" x1="666.38" y1="56.9" x2="666.38" y2="238.81"/>
      <line class="cls-2" x1="686.38" y1="56.9" x2="686.38" y2="238.81"/>
      <line class="cls-2" x1="706.38" y1="56.9" x2="706.38" y2="238.81"/>
      <line class="cls-2" x1="726.38" y1="56.9" x2="726.38" y2="238.81"/>
      <line class="cls-2" x1="746.38" y1="56.9" x2="746.38" y2="238.81"/>
      <line class="cls-2" x1="766.38" y1="56.9" x2="766.38" y2="238.81"/>
      <line class="cls-3" x1="786.38" y1="56.9" x2="786.38" y2="238.81"/>
      <line class="cls-2" x1="806.38" y1="56.9" x2="806.38" y2="238.81"/>
      <line class="cls-2" x1="826.38" y1="56.9" x2="826.38" y2="238.81"/>
      <line class="cls-2" x1="846.38" y1="56.9" x2="846.38" y2="238.81"/>
      <line class="cls-2" x1="866.38" y1="56.9" x2="866.38" y2="238.81"/>
      <line class="cls-3" x1="886.38" y1="56.9" x2="886.38" y2="238.81"/>
      <line class="cls-2" x1="906.38" y1="56.9" x2="906.38" y2="238.81"/>
      <line class="cls-2" x1="926.38" y1="56.9" x2="926.38" y2="238.81"/>
      <line class="cls-2" x1="946.38" y1="56.9" x2="946.38" y2="238.81"/>
      <line class="cls-2" x1="966.38" y1="56.9" x2="966.38" y2="238.81"/>
      <line class="cls-2" x1="986.38" y1="56.9" x2="986.38" y2="238.81"/>
      <line class="cls-2" x1="1006.38" y1="56.9" x2="1006.38" y2="238.81"/>
      <line class="cls-2" x1="1026.38" y1="56.9" x2="1026.38" y2="238.81"/>
      <line class="cls-2" x1="1046.38" y1="56.9" x2="1046.38" y2="238.81"/>
      <line class="cls-2" x1="1066.38" y1="56.9" x2="1066.38" y2="238.81"/>
      <line class="cls-2" x1="1086.38" y1="56.9" x2="1086.38" y2="238.81"/>
      <line class="cls-2" x1="1106.38" y1="56.9" x2="1106.38" y2="238.81"/>
      <line class="cls-2" x1="1126.38" y1="56.9" x2="1126.38" y2="238.81"/>
    </g>
  </g>
  <g id="Left_labels" data-name="Left labels">
    <text class="cls-4" transform="translate(0 74.1) scale(1.13 1)">Master</text>
    <text class="cls-4" transform="translate(0 115.08) scale(1.13 1)">Expe<tspan class="cls-5" x="32.06" y="0">r</tspan><tspan class="cls-6" x="37.5" y="0">t</tspan></text>
    <text class="cls-4" transform="translate(0 156.07) scale(1.13 1)">P<tspan class="cls-7" x="9.28" y="0">r</tspan><tspan x="14.21" y="0">oficient</tspan></text>
    <text class="cls-4" transform="translate(0 197.05) scale(1.13 1)"><tspan class="cls-8">F</tspan><tspan x="8.23" y="0">amiliar</tspan></text>
    <text class="cls-4" transform="translate(0 238.04) scale(1.13 1)">Beginner</text>
  </g>
  <g id="Top_labels" data-name="Top labels">
    <text class="cls-9" transform="translate(124.79 14.54)">P<tspan class="cls-10" x="10.47" y="0">r</tspan><tspan x="16.02" y="0">og</tspan><tspan class="cls-11" x="34.97" y="0">r</tspan><tspan x="40.36" y="0">amming</tspan><tspan x="12.61" y="20.4">languages</tspan></text>
    <text class="cls-9" transform="translate(320.02 14.54)">Database<tspan x="1.35" y="20.4">solutions</tspan></text>
    <text class="cls-9" transform="translate(569.54 26.54)"><tspan class="cls-12">F</tspan><tspan class="cls-11" x="9.35" y="0">r</tspan><tspan x="14.73" y="0">ameworks</tspan></text>
    <text class="cls-9" transform="translate(807.93 14.54)"><tspan class="cls-13">V</tspan><tspan x="10.12" y="0">ersion</tspan><tspan x="1.97" y="20.4">cont</tspan><tspan class="cls-10" x="35.05" y="20.4">r</tspan><tspan x="40.6" y="20.4">ol</tspan></text>
    <text class="cls-9" transform="translate(987.12 26.54)">D<tspan class="cls-14" x="11.13" y="0">e</tspan><tspan x="19.81" y="0">vOps</tspan></text>
  </g>
  <g id="skills_1" data-name="skills 1">
    <g>
      <rect class="cls-15" x="105.88" y="63.66" width="60" height="175.82"/>
      <rect class="cls-16" x="185.88" y="171.9" width="60" height="67.58"/>
    </g>
    <g>
      <rect class="cls-17" x="285.88" y="144.81" width="60" height="94.67"/>
      <rect class="cls-18" x="364.88" y="90.9" width="60" height="148.58"/>
    </g>
    <g>
      <rect class="cls-19" x="465.88" y="63.66" width="60" height="175.82"/>
      <rect class="cls-20" x="625.88" y="66.37" width="60" height="173.12"/>
      <rect class="cls-21" x="705.88" y="131.9" width="60" height="107.58"/>
      <rect class="cls-22" x="545.88" y="84.63" width="60" height="154.86"/>
    </g>
    <rect class="cls-23" x="805.88" y="77.86" width="60" height="161.62"/>
    <g>
      <rect class="cls-24" x="905.88" y="104.9" width="60" height="134.58"/>
      <rect class="cls-25" x="985.88" y="90.9" width="60" height="148.58"/>
      <rect class="cls-26" x="1065.88" y="104.9" width="60" height="134.58"/>
    </g>
  </g>
  <g id="skill_icons" data-name="skill icons">
    <g>
      <path class="cls-27" d="M477,289l18.61-6.63,19.11,6.51-3.1,24.62-16,8.87-15.77-8.75Z"/>
      <path class="cls-28" d="M514.74,288.92l-19.11-6.51v40l16-8.85,3.1-24.64Z"/>
      <path class="cls-29" d="M495.66,287.08h0l-11.6,25.8,4.33-.08,2.33-5.81h10.4l2.55,5.89,4.14.07-12.15-25.87Zm0,8.27,3.92,8.19h-7.37l3.45-8.19Z"/>
    </g>
    <g>
      <path class="cls-30" d="M1021.4,295h6.33v6.46h3.2a14.12,14.12,0,0,0,4.4-.75,9.77,9.77,0,0,0,2.12-1,8.06,8.06,0,0,1-1.49-4.09,8.63,8.63,0,0,1,1.55-6.08l.66-.77.8.63a10,10,0,0,1,4,6.38,9.65,9.65,0,0,1,7.32.69l.86.5-.47.89c-1.8,3.48-5.52,4.55-9.17,4.39-5.47,13.62-17.38,20.08-31.82,20.08-7.46,0-14.31-2.79-18.21-9.39l0-.11-.58-1.16a18.12,18.12,0,0,1-1.47-9.28l.08-1h5.42V295h6.33v-6.3h12.65v-6.33h7.57V295"/>
      <path class="cls-31" d="M1041.87,297.44c.42-3.29-2-5.89-3.56-7.1-1.77,2-2,7.37.72,9.61a13.22,13.22,0,0,1-8.12,2.6H990.44a16.77,16.77,0,0,0,1.68,9.39l.47.83a17.27,17.27,0,0,0,1,1.44h0c1.66.11,3.2.13,4.61.11h0a22.91,22.91,0,0,0,6.71-1,.49.49,0,0,1,.61.3.48.48,0,0,1-.3.61,5,5,0,0,1-.72.22h0a20.64,20.64,0,0,1-4.64.75c.11,0-.11,0-.11,0a.58.58,0,0,0-.19,0c-.72,0-1.52.06-2.33.06s-1.74,0-2.73-.06l0,0c3.37,3.79,8.65,6.08,15.25,6.08,14,0,25.86-6.22,31.11-20.14,3.73.39,7.32-.58,9-3.76a8.85,8.85,0,0,0-7.88-.05"/>
      <path class="cls-32" d="M1041.87,297.44c.42-3.29-2-5.89-3.56-7.1-1.77,2-2,7.37.72,9.61a13.22,13.22,0,0,1-8.12,2.6h-38.1c-.16,5.3,1.8,9.36,5.31,11.79h0a22.61,22.61,0,0,0,6.71-1,.48.48,0,0,1,.61.3.49.49,0,0,1-.31.61,6.78,6.78,0,0,1-.72.22h0a23.38,23.38,0,0,1-4.77.8l-.06-.05c4.75,2.43,11.66,2.43,19.59-.61a55.2,55.2,0,0,0,22.9-17.35c0,.06-.11.08-.2.14"/>
      <path class="cls-33" d="M990.49,306.78a16.52,16.52,0,0,0,1.6,5.19l.47.83c.31.49.61,1,1,1.43,1.66.11,3.21.14,4.61.11a22.69,22.69,0,0,0,6.72-1,.47.47,0,0,1,.6.3.48.48,0,0,1-.3.61,6.78,6.78,0,0,1-.72.22h0a21.62,21.62,0,0,1-4.75.77h-.25c-.72,0-1.52.06-2.32.06s-1.79,0-2.76-.06c3.37,3.79,8.67,6.08,15.3,6.08,12,0,22.41-4.56,28.46-14.58H990.49"/>
      <path class="cls-34" d="M993.2,306.78a12.1,12.1,0,0,0,4.94,7.56,22.69,22.69,0,0,0,6.72-1,.47.47,0,0,1,.6.3.48.48,0,0,1-.3.61,6.78,6.78,0,0,1-.72.22h0a21.91,21.91,0,0,1-4.78.77c4.75,2.43,11.66,2.41,19.56-.63a52.93,52.93,0,0,0,13.54-7.87H993.2"/>
      <path class="cls-35" d="M995.93,296.08h5.47v5.47h-5.47Zm.45.47h.44v4.56h-.44Zm.82,0h.45v4.56h-.45Zm.83,0h.45v4.56H998Zm.83,0h.44v4.56h-.44Zm.83,0h.44v4.56h-.44Zm.83,0h.44v4.56h-.44Z"/>
      <path class="cls-35" d="M1002.23,289.79h5.47v5.47h-5.47Zm.47.44h.44v4.56h-.44Zm.8,0h.45v4.56h-.45Zm.83,0h.44v4.56h-.44Zm.83,0h.44v4.56h-.44Zm.83,0h.44v4.56H1006Zm.83,0h.44v4.56h-.44Z"/>
      <path class="cls-36" d="M1002.23,296.08h5.47v5.47h-5.47Zm.47.47h.44v4.56h-.44Zm.8,0h.45v4.56h-.45Zm.83,0h.44v4.56h-.44Zm.83,0h.44v4.56h-.44Zm.83,0h.44v4.56H1006Zm.83,0h.44v4.56h-.44Z"/>
      <path class="cls-35" d="M1008.56,296.08H1014v5.47h-5.47Zm.44.47h.44v4.56H1009Zm.83,0h.44v4.56h-.44Zm.83,0h.44v4.56h-.44Zm.83,0h.44v4.56h-.44Zm.83,0h.44v4.56h-.44Zm.82,0h.45v4.56h-.45Z"/>
      <path class="cls-36" d="M1008.56,289.79H1014v5.47h-5.47Zm.44.44h.44v4.56H1009Zm.83,0h.44v4.56h-.44Zm.83,0h.44v4.56h-.44Zm.83,0h.44v4.56h-.44Zm.83,0h.44v4.56h-.44Zm.82,0h.45v4.56h-.45Z"/>
      <path class="cls-36" d="M1014.88,296.08h5.47v5.47h-5.47Zm.45.47h.44v4.56h-.44Zm.83,0h.44v4.56h-.44Zm.82,0h.45v4.56H1017Zm.83,0h.44v4.56h-.44Zm.83,0h.44v4.56h-.44Zm.83,0h.44v4.56h-.44Z"/>
      <path class="cls-35" d="M1014.88,289.79h5.47v5.47h-5.47Zm.45.44h.44v4.56h-.44Zm.83,0h.44v4.56h-.44Zm.82,0h.45v4.56H1017Zm.83,0h.44v4.56h-.44Zm.83,0h.44v4.56h-.44Zm.83,0h.44v4.56h-.44Z"/>
      <path class="cls-36" d="M1014.88,283.46h5.47v5.47h-5.47Zm.45.47h.44v4.56h-.44Zm.83,0h.44v4.56h-.44Zm.82,0h.45v4.56H1017Zm.83,0h.44v4.56h-.44Zm.83,0h.44v4.56h-.44Zm.83,0h.44v4.56h-.44Z"/>
      <path class="cls-35" d="M1021.18,296.08h5.47v5.47h-5.47Zm.47.47h.44v4.56h-.44Zm.8,0h.45v4.56h-.45Zm.83,0h.44v4.56h-.44Zm.83,0h.44v4.56h-.44Zm.83,0h.44v4.56h-.44Zm.83,0h.44v4.56h-.44Z"/>
      <path class="cls-37" d="M1007.37,310.45a1.52,1.52,0,1,1-1.52,1.52,1.51,1.51,0,0,1,1.52-1.52"/>
      <path class="cls-30" d="M1007.37,310.86a.83.83,0,0,1,.39.09.43.43,0,0,0-.22.38.44.44,0,0,0,.44.45.47.47,0,0,0,.39-.23,1.25,1.25,0,0,1,.08.42,1.08,1.08,0,1,1-1.08-1.11"/>
      <path class="cls-30" d="M980.66,307.33h70.25c-1.52-.39-4.84-.91-4.29-2.93-2.79,3.23-9.5,2.26-11.18.66-1.88,2.74-12.88,1.69-13.62-.44-2.38,2.76-9.7,2.76-12.05,0-.77,2.16-11.74,3.18-13.64.44-1.69,1.58-8.4,2.54-11.19-.66.55,2-2.76,2.54-4.28,2.93"/>
      <path class="cls-38" d="M1011.38,321.33a13.34,13.34,0,0,1-6.94-6.82,22.38,22.38,0,0,1-5,.75c-.72,0-1.49.05-2.32.05s-1.9,0-2.93-.08c3.43,3.42,7.66,6.08,15.47,6.1a16.45,16.45,0,0,0,1.72,0"/>
      <path class="cls-37" d="M1005.85,316.94a11.71,11.71,0,0,1-1.38-2.43,22.47,22.47,0,0,1-5,.75,15.6,15.6,0,0,0,6.38,1.68"/>
    </g>
    <path class="cls-39" d="M730.45,291c-5.23-.95-9.36,0-11,2.9-1.23,2.12-.88,4.95.85,8a.54.54,0,1,0,.93-.53c-1.56-2.72-1.86-5.15-.85-6.9,1.37-2.37,5-3.26,9.89-2.38a.53.53,0,0,0,.62-.43.53.53,0,0,0-.43-.62Zm7.73-4.86a2.57,2.57,0,1,1,.28-1.17v.11c4.25,2.19,7.2,9.68,7.2,18.34a33.55,33.55,0,0,1-1.43,9.93.53.53,0,0,1-1-.32,32.66,32.66,0,0,0,1.38-9.61C744.59,295.28,741.88,288.27,738.18,286.15ZM719.8,310.28H720a2.56,2.56,0,1,1-1.24.32c-.39-4.79,4.65-11.22,12.27-15.62a33.44,33.44,0,0,1,9.55-3.78.53.53,0,1,1,.22,1,32.54,32.54,0,0,0-9.24,3.67C724.38,300,719.64,306,719.8,310.28Zm29.73,3.82a2.58,2.58,0,1,1,.74.82c-4.09,2.41-11.91,1.18-19.27-3.07a33.62,33.62,0,0,1-8-6.31.53.53,0,1,1,.79-.72,32.39,32.39,0,0,0,7.74,6.1c6.94,4,14.25,5.2,18,3.18Zm-.16-9.21a.54.54,0,0,1-.76.06.53.53,0,0,1-.06-.75c3.16-3.74,4.23-7.37,2.86-9.73-1-1.72-3.19-2.67-6.25-2.71a.54.54,0,1,1,0-1.07c3.4,0,6,1.15,7.17,3.24C754,296.78,752.79,300.85,749.37,304.89Zm-21.48,9.45a.54.54,0,1,1,1-.36c1.65,4.61,4.26,7.36,7,7.36,2,0,3.88-1.41,5.43-4a.54.54,0,0,1,.92.55c-1.73,2.88-4,4.52-6.35,4.52C732.61,322.41,729.68,319.33,727.89,314.34Zm25.37-1.51a1.5,1.5,0,1,0-1.5,1.5A1.5,1.5,0,0,0,753.26,312.83ZM720,314.33a1.5,1.5,0,1,0-1.49-1.5A1.5,1.5,0,0,0,720,314.33Zm15.91-27.86a1.5,1.5,0,1,0-1.5-1.49A1.49,1.49,0,0,0,735.9,286.47Zm.39,18.77a1.86,1.86,0,1,1,1.42-2.21A1.86,1.86,0,0,1,736.29,305.24Z"/>
    <path class="cls-40" d="M855.12,300.63l-17.46-17.46a2.57,2.57,0,0,0-3.64,0l-3.63,3.62,4.6,4.6a3.07,3.07,0,0,1,3.88,3.9l4.43,4.44a3.05,3.05,0,1,1-1.84,1.72l-4.13-4.13V308.2a3.25,3.25,0,0,1,.81.58,3.07,3.07,0,1,1-4.34,0,3.18,3.18,0,0,1,1-.67v-11a3,3,0,0,1-1-.67,3.09,3.09,0,0,1-.66-3.35l-4.53-4.54-12,12a2.58,2.58,0,0,0,0,3.64l17.47,17.47a2.58,2.58,0,0,0,3.64,0l17.38-17.39a2.57,2.57,0,0,0,0-3.64"/>
    <g id="surface1">
      <path class="cls-41" d="M942.5,290.19H929.16l-7.77,12.22,7.77,12.22H942.5l7.77-12.22ZM935.83,308a5.56,5.56,0,1,1,5.56-5.56A5.51,5.51,0,0,1,935.83,308Z"/>
      <path class="cls-42" d="M947.83,283.74a3.07,3.07,0,0,0-2.44-1.33H926.27a3.07,3.07,0,0,0-2.44,1.33l-6.44,10.56,5.11,8.11,7-11.11h22.89ZM926.94,288a1.12,1.12,0,1,1,1.11-1.11A1,1,0,0,1,926.94,288Zm17.78,0a1.12,1.12,0,1,1,1.11-1.11A1,1,0,0,1,944.72,288Z"/>
      <path class="cls-43" d="M929.5,313.52l-12.11-19.11-4,6.56a2.89,2.89,0,0,0,0,3l10.44,17.11a2.78,2.78,0,0,0,2.44,1.33h10.12l5.66-8.89Zm-11.45-10a1.11,1.11,0,1,1,1.11-1.11A1,1,0,0,1,918.05,303.52Zm8.89,15.56a1.11,1.11,0,1,1,1.11-1.11A1,1,0,0,1,926.94,319.08Z"/>
      <path class="cls-44" d="M917.39,294.41l5.11,8,2.66-4.11-6.55-5.89Z"/>
      <path class="cls-45" d="M936.5,322.41l5.66-8.89h-5.33l-2.56,8.89Z"/>
      <path class="cls-46" d="M958.27,301l-5.88-9.67H942.16l7,11.11-12.66,20h8.89a3,3,0,0,0,2.44-1.33L958.39,304A2.68,2.68,0,0,0,958.27,301Zm-13.55,18.11a1.11,1.11,0,1,1,1.11-1.11A1,1,0,0,1,944.72,319.08Zm8.89-15.56a1.11,1.11,0,1,1,1.11-1.11A1,1,0,0,1,953.61,303.52Z"/>
      <path class="cls-47" d="M952.39,291.3H942.16l2.78,4.33,8.78-2.11Z"/>
    </g>
    <path class="cls-48" d="M672.54,288.55a2.77,2.77,0,0,1-.69,1.84,20,20,0,1,1-4-3.95,2.76,2.76,0,0,1,1.83-.69A2.8,2.8,0,0,1,672.54,288.55Zm-16.66,33.19a19.31,19.31,0,0,0,15.47-30.89,2.81,2.81,0,0,1-4.42-2.3,2.83,2.83,0,0,1,.51-1.62,19.33,19.33,0,1,0-11.56,34.81Zm0-11.16a8.17,8.17,0,1,1,8.16-8.17A8.17,8.17,0,0,1,655.88,310.58Z"/>
    <g>
      <path class="cls-49" d="M1088.46,321.77a3.12,3.12,0,0,1-2.47-1.19l-9.3-11.56a3.1,3.1,0,0,1-.61-2.7l3.32-14.43a3.17,3.17,0,0,1,1.72-2.15l13.44-6.43a3.25,3.25,0,0,1,2.77,0l13.44,6.4a3.16,3.16,0,0,1,1.72,2.16l3.32,14.42a3.22,3.22,0,0,1-.61,2.71l-9.29,11.55a3.22,3.22,0,0,1-2.47,1.2l-15,0Z"/>
      <path class="cls-29" d="M1095.92,283.66a2.62,2.62,0,0,1,1.09.24l13.44,6.4a2.56,2.56,0,0,1,1.38,1.73l3.32,14.42a2.5,2.5,0,0,1-.51,2.18l-9.29,11.55a2.54,2.54,0,0,1-2,1h-14.9a2.56,2.56,0,0,1-2-1l-9.29-11.55a2.67,2.67,0,0,1-.51-2.18L1080,292a2.56,2.56,0,0,1,1.38-1.73l13.44-6.43a3.32,3.32,0,0,1,1.12-.21Zm0-1.25h0a4,4,0,0,0-1.65.37l-13.44,6.43a3.76,3.76,0,0,0-2.07,2.58l-3.32,14.42a3.8,3.8,0,0,0,.74,3.24l9.3,11.55a3.74,3.74,0,0,0,3,1.41h14.9a3.74,3.74,0,0,0,3-1.41l9.29-11.55a3.75,3.75,0,0,0,.75-3.24L1113,291.79a3.76,3.76,0,0,0-2.07-2.58l-13.39-6.43a3.8,3.8,0,0,0-1.62-.37Z"/>
      <path class="cls-29" d="M1109.38,305.31h0s0,0,0,0-.11,0-.16,0-.35-.05-.51-.05a.83.83,0,0,1-.26,0h0a6.45,6.45,0,0,1-1.44-.24.54.54,0,0,1-.29-.29s0,0,0-.05h0l-.35-.11a10.29,10.29,0,0,0-.19-3.74,10.86,10.86,0,0,0-1.48-3.48l.26-.24v0a.58.58,0,0,1,.14-.4,7.85,7.85,0,0,1,1.19-.83h0l.24-.13c.16-.08.29-.16.45-.26l.13-.11s.06,0,.06-.05h0a.89.89,0,0,0,.18-1.2.76.76,0,0,0-.61-.29,1,1,0,0,0-.58.21h0l0,0c-.06,0-.08.08-.14.11a3.81,3.81,0,0,0-.34.37,1.14,1.14,0,0,1-.19.19h0a6.32,6.32,0,0,1-1.06.95.38.38,0,0,1-.24.08.44.44,0,0,1-.16,0h0l-.32.21a14.65,14.65,0,0,0-1.09-1,10.52,10.52,0,0,0-5.55-2.2l0-.35,0-.05a.53.53,0,0,1-.21-.35,8.15,8.15,0,0,1,.08-1.43v0a.8.8,0,0,1,0-.26c0-.16,0-.32.08-.51v-.24h0a.82.82,0,0,0-1.41-.61.84.84,0,0,0-.24.61h0v.22a1.64,1.64,0,0,0,.08.5,1.64,1.64,0,0,1,0,.27v0a6.07,6.07,0,0,1,.08,1.44.53.53,0,0,1-.21.34l0,.05h0l0,.35a14.09,14.09,0,0,0-1.43.21,10.21,10.21,0,0,0-5.26,3l-.27-.19h0l-.16,0a.46.46,0,0,1-.24-.08,7.72,7.72,0,0,1-1.06-1h0a.85.85,0,0,0-.19-.19,3.81,3.81,0,0,0-.34-.37l-.13-.11s-.06,0-.06-.05h0a.94.94,0,0,0-.58-.21.74.74,0,0,0-.61.29.88.88,0,0,0,.18,1.19h0s0,0,.06,0,.08.08.13.11.29.18.45.26a1.41,1.41,0,0,1,.24.13h0a7.85,7.85,0,0,1,1.19.83.47.47,0,0,1,.14.4v.05h0l.26.24a1.2,1.2,0,0,0-.13.21,10.37,10.37,0,0,0-1.49,7l-.34.11s0,0,0,.05a.58.58,0,0,1-.29.29,6.16,6.16,0,0,1-1.44.24h0a.83.83,0,0,0-.27,0,4.7,4.7,0,0,0-.5.05c-.06,0-.11,0-.16,0a.09.09,0,0,0-.08,0h0a.86.86,0,0,0-.69,1,.82.82,0,0,0,.85.61.51.51,0,0,0,.21,0h0s0,0,0,0,.11,0,.16,0a2.29,2.29,0,0,0,.48-.19c.08,0,.16-.08.24-.1h0a6,6,0,0,1,1.38-.4h0a.63.63,0,0,1,.35.13s0,0,0,0h0l.37,0a10.57,10.57,0,0,0,3.48,5,10.85,10.85,0,0,0,1.14.77l-.16.34s0,0,0,.06a.52.52,0,0,1,.05.42,7.57,7.57,0,0,1-.69,1.25v0c0,.08-.1.13-.16.21s-.18.27-.29.43a.36.36,0,0,0-.08.13s0,0,0,0h0a.84.84,0,0,0,.35,1.14.63.63,0,0,0,.32.08,1,1,0,0,0,.8-.5h0a.08.08,0,0,1,0-.05l.08-.14a3.85,3.85,0,0,0,.16-.48l.08-.23h0a6.18,6.18,0,0,1,.56-1.33.69.69,0,0,1,.34-.24s0,0,.06,0h0l.18-.34a10.44,10.44,0,0,0,3.72.69,9.42,9.42,0,0,0,2.31-.27,12.22,12.22,0,0,0,1.38-.4l.16.29s0,0,.06,0a.51.51,0,0,1,.34.24,9.52,9.52,0,0,1,.56,1.33v0l.08.23a3,3,0,0,0,.16.48,1,1,0,0,0,.08.14.12.12,0,0,0,0,.05h0a.9.9,0,0,0,.8.5.63.63,0,0,0,.32-.08.75.75,0,0,0,.4-.47,1,1,0,0,0,0-.67h0s0,0,0,0a.36.36,0,0,0-.08-.13,2.69,2.69,0,0,0-.29-.43c-.06-.08-.11-.13-.16-.21v0a5.86,5.86,0,0,1-.69-1.25.73.73,0,0,1,0-.42s0,0,0-.06h0l-.13-.31a10.62,10.62,0,0,0,4.62-5.82l.32.05s0,0,0,0a.65.65,0,0,1,.35-.14h0a7.39,7.39,0,0,1,1.38.4h0l.24.11a2.19,2.19,0,0,0,.47.18c.06,0,.11,0,.16,0a.08.08,0,0,1,.08,0h0a.82.82,0,0,0,.22,0,.9.9,0,0,0,.85-.61,1,1,0,0,0-.78-.87ZM1097.09,304l-1.17.56-1.17-.56-.29-1.24.79-1h1.31l.79,1-.26,1.24Zm6.93-2.76a8.45,8.45,0,0,1,.19,2.68l-4.07-1.16a.72.72,0,0,1-.5-.85.59.59,0,0,1,.16-.3l3.21-2.89a8.42,8.42,0,0,1,1,2.52Zm-2.28-4.11-3.48,2.47a.72.72,0,0,1-.93-.16.64.64,0,0,1-.14-.3l-.24-4.33a8.11,8.11,0,0,1,4.79,2.32ZM1094,295l.85-.16-.24,4.25a.72.72,0,0,1-.71.69.66.66,0,0,1-.32-.08l-3.53-2.52a8,8,0,0,1,4-2.18Zm-5.23,3.77,3.16,2.81a.72.72,0,0,1,.08,1,.55.55,0,0,1-.32.21l-4.11,1.19a8.51,8.51,0,0,1,1.19-5.2Zm-.72,7.2,4.23-.72a.71.71,0,0,1,.74.56.66.66,0,0,1,0,.42h0l-1.62,3.91a8.45,8.45,0,0,1-3.32-4.17Zm9.7,5.28a8.22,8.22,0,0,1-1.86.21,8.84,8.84,0,0,1-2.68-.42l2.09-3.8a.7.7,0,0,1,.85-.18,1,1,0,0,1,.32.29h0l2,3.69c-.24.08-.51.13-.77.21Zm5.18-3.69a8.6,8.6,0,0,1-2.55,2.58l-1.68-4a.73.73,0,0,1,.38-.83.87.87,0,0,1,.37-.08l4.25.72a5.48,5.48,0,0,1-.77,1.62Z"/>
    </g>
    <g>
      <path class="cls-50" d="M316.81,322.41l-1.07-.37s.14-5.43-1.83-5.82c-1.29-1.52.2-63.9,4.87-.2a3.86,3.86,0,0,0-1.89,2.2,19.45,19.45,0,0,0-.08,4.19Z"/>
      <path class="cls-51" d="M316.81,322.41l-1.07-.37s.14-5.43-1.83-5.82c-1.29-1.52.2-63.9,4.87-.2a3.86,3.86,0,0,0-1.89,2.2,19.45,19.45,0,0,0-.08,4.19Z"/>
      <path class="cls-50" d="M317.37,317.17s9.32-6.13,7.15-18.88c-2.11-9.29-7.06-12.33-7.63-13.49a14.56,14.56,0,0,1-1.18-2.28l.42,25.79s-.81,7.91,1.24,8.86"/>
      <path class="cls-52" d="M317.37,317.17s9.32-6.13,7.15-18.88c-2.11-9.29-7.06-12.33-7.63-13.49a14.56,14.56,0,0,1-1.18-2.28l.42,25.79s-.81,7.91,1.24,8.86"/>
      <path class="cls-50" d="M315.18,317.51s-8.76-6-8.25-16.49,6.7-15.71,7.88-16.64a2.33,2.33,0,0,0,.85-2c.53,1.18.45,17.48.5,19.4.28,7.4-.36,14.3-1,15.7Z"/>
      <path class="cls-53" d="M315.18,317.51s-8.76-6-8.25-16.49,6.7-15.71,7.88-16.64a2.33,2.33,0,0,0,.85-2c.53,1.18.45,17.48.5,19.4.28,7.4-.36,14.3-1,15.7Z"/>
    </g>
    <g>
      <path class="cls-54" d="M557.41,303.18a.76.76,0,0,0-.38-.65L550.82,299a.75.75,0,0,0-.34-.1h-.06a.7.7,0,0,0-.34.1l-6.2,3.57a.77.77,0,0,0-.38.65l0,9.6a.34.34,0,0,0,.19.31.3.3,0,0,0,.36,0l3.69-2.1a.75.75,0,0,0,.38-.64v-4.5a.76.76,0,0,1,.38-.65l1.57-.91a.72.72,0,0,1,.38-.1.71.71,0,0,1,.37.1l1.57.91a.77.77,0,0,1,.38.65v4.5a.76.76,0,0,0,.38.64l3.68,2.1a.33.33,0,0,0,.38,0,.38.38,0,0,0,.19-.31v-9.6Z"/>
      <path class="cls-54" d="M587.23,290a.35.35,0,0,0-.37,0,.39.39,0,0,0-.19.31v9.53a.27.27,0,0,1-.13.23.39.39,0,0,1-.26,0l-1.56-.9a.77.77,0,0,0-.75,0l-6.2,3.58a.75.75,0,0,0-.38.65v7.15a.76.76,0,0,0,.38.65l6.2,3.58a.77.77,0,0,0,.75,0l6.21-3.58a.77.77,0,0,0,.38-.65V292.68a.78.78,0,0,0-.38-.66l-3.7-2.06Zm-.57,18.21a.18.18,0,0,1-.09.16l-2.13,1.23a.21.21,0,0,1-.19,0l-2.13-1.23c-.06,0-.08-.1-.08-.16v-2.46a.15.15,0,0,1,.08-.16l2.13-1.23a.21.21,0,0,1,.19,0l2.13,1.23a.17.17,0,0,1,.09.16v2.46Z"/>
      <g>
        <path class="cls-54" d="M607.89,305.65a.76.76,0,0,0,.36-.65v-1.73a.79.79,0,0,0-.36-.65l-6.17-3.57a.77.77,0,0,0-.75,0l-6.2,3.58a.75.75,0,0,0-.38.65v7.15a.76.76,0,0,0,.38.65l6.17,3.51a.79.79,0,0,0,.73,0l3.74-2.08a.37.37,0,0,0,.18-.32.35.35,0,0,0-.18-.31l-6.25-3.6A.38.38,0,0,1,599,308v-2.24a.36.36,0,0,1,.19-.31l2-1.12a.37.37,0,0,1,.38,0l2,1.12a.37.37,0,0,1,.19.31v1.76a.37.37,0,0,0,.19.32.33.33,0,0,0,.38,0l3.69-2.15Z"/>
        <path class="cls-55" d="M601.25,305.32a.14.14,0,0,1,.15,0l1.19.68a.18.18,0,0,1,.08.13v1.38a.14.14,0,0,1-.08.13l-1.19.68a.19.19,0,0,1-.15,0l-1.19-.68a.17.17,0,0,1-.07-.13v-1.37a.14.14,0,0,1,.07-.13l1.19-.69Z"/>
      </g>
      <g>
        <path class="cls-56" d="M567.79,299.08a.77.77,0,0,0-.75,0l-6.17,3.55a.73.73,0,0,0-.36.65v7.13a.77.77,0,0,0,.36.64l6.17,3.56a.77.77,0,0,0,.75,0l6.16-3.56a.73.73,0,0,0,.37-.64v-7.13a.78.78,0,0,0-.37-.65l-6.16-3.55Z"/>
        <g>
          <path class="cls-57" d="M567,299.08l-6.18,3.55a.77.77,0,0,0-.4.65v7.13a.73.73,0,0,0,.19.47L567.58,299a.71.71,0,0,0-.55.08Z"/>
          <path class="cls-57" d="M567.62,314.69a.42.42,0,0,0,.18-.08l6.18-3.56a.74.74,0,0,0,.38-.64v-7.13a.75.75,0,0,0-.22-.51l-6.52,11.92Z"/>
          <path class="cls-58" d="M574,302.63l-6.18-3.55a.64.64,0,0,0-.19-.08l-6.94,11.89a.88.88,0,0,0,.21.18l6.19,3.56a.76.76,0,0,0,.57.07l6.51-11.91a.52.52,0,0,0-.17-.16Z"/>
        </g>
        <g>
          <path class="cls-57" d="M574.36,310.42v-7.13a.8.8,0,0,0-.39-.65l-6.2-3.56a1,1,0,0,0-.22-.09l6.77,11.58a.26.26,0,0,0,0-.15Z"/>
          <path class="cls-57" d="M560.85,302.64a.77.77,0,0,0-.4.65v7.13a.81.81,0,0,0,.4.64l6.19,3.56a.72.72,0,0,0,.48.09l-6.63-12.08Z"/>
          <path class="cls-59" d="M566.84,297.78l-.09,0h.11Z"/>
          <path class="cls-60" d="M574,311.05a.87.87,0,0,0,.37-.47L567.55,299a.85.85,0,0,0-.54.09l-6.14,3.55,6.64,12.09a.76.76,0,0,0,.28-.09l6.19-3.58Z"/>
          <path class="cls-61" d="M574.55,310.93l0-.07v.1Z"/>
          <path class="cls-62" d="M574,311.05l-6.18,3.56a2.29,2.29,0,0,1-.28.09l.11.21,6.86-4v-.09l-.18-.29a.72.72,0,0,1-.33.48Z"/>
          <path class="cls-63" d="M574,311.05l-6.18,3.56a2.29,2.29,0,0,1-.28.09l.11.21,6.86-4v-.09l-.18-.29a.72.72,0,0,1-.33.48Z"/>
        </g>
      </g>
    </g>
    <g>
      <path d="M414.18,306.37a2,2,0,0,0-1.64-1.31,3.48,3.48,0,0,0-1.3.07,11.53,11.53,0,0,1-2,.26,38.52,38.52,0,0,0,4.1-9.76c1.36-5.27.63-7.67-.22-8.75a11.76,11.76,0,0,0-9.49-4.47,17,17,0,0,0-4.93.69,18.7,18.7,0,0,0-2.89-.26,9.32,9.32,0,0,0-5,1.24,22.59,22.59,0,0,0-3.55-.89c-3.47-.57-6.27-.13-8.31,1.32-2.48,1.75-3.63,4.79-3.42,9a52.84,52.84,0,0,0,2,9.34,32.23,32.23,0,0,0,2.17,5.52c1.06,2,2.21,3.21,3.49,3.64a3.44,3.44,0,0,0,3.4-.73,2.75,2.75,0,0,0,.71.61,4.65,4.65,0,0,0,1.35.57,7.26,7.26,0,0,0,4.71-.28c0,.24,0,.48,0,.68s0,.65,0,.95a17,17,0,0,0,.63,4.72,1.72,1.72,0,0,1,.09.25,5.63,5.63,0,0,0,1.41,2.49,4.22,4.22,0,0,0,3,1.11,6.75,6.75,0,0,0,1.4-.15,6.56,6.56,0,0,0,4.41-2.56c1.16-1.65,1.72-4.13,1.82-8.05,0-.11,0-.21,0-.31l0-.21.28,0h.07a10.75,10.75,0,0,0,4.51-.79c.91-.41,3.8-1.94,3.12-4"/>
      <path class="cls-64" d="M411.58,306.77c-4.52.93-4.83-.6-4.83-.6,4.77-7.07,6.76-16.06,5-18.26-4.69-6-12.82-3.16-13-3.09h0a16.69,16.69,0,0,0-3-.31A7.38,7.38,0,0,0,391,286s-14.49-6-13.82,7.51c.15,2.87,4.11,21.7,8.85,16,1.73-2.08,3.4-3.84,3.4-3.84a4.34,4.34,0,0,0,2.86.74l.08-.07a3.23,3.23,0,0,0,0,.81c-1.22,1.36-.86,1.6-3.3,2.1s-1,1.41-.07,1.65a5,5,0,0,0,5.59-1.82l-.07.29c.48.38.81,2.49.75,4.4a12.11,12.11,0,0,0,.29,4.24c.37,1,.75,3.33,3.95,2.64,2.68-.57,4.07-2.06,4.26-4.54.14-1.76.45-1.5.47-3.08l.25-.74c.28-2.39,0-3.16,1.69-2.81l.4,0a9.11,9.11,0,0,0,3.74-.63c2-.93,3.2-2.49,1.22-2.08h0"/>
      <path class="cls-29" d="M391.85,294.74a1.39,1.39,0,0,0-1,.14.33.33,0,0,0-.14.23.65.65,0,0,0,.16.45,1.27,1.27,0,0,0,.8.5h.13a1,1,0,0,0,1-.67c.05-.35-.47-.59-1-.66"/>
      <path class="cls-29" d="M405.34,294.75h0c0-.28-.53-.36-1-.29s-.93.28-.89.56a1,1,0,0,0,.89.58h.12a1.17,1.17,0,0,0,.64-.35.7.7,0,0,0,.24-.49"/>
      <path class="cls-29" d="M413.08,306.67c-.17-.52-.73-.69-1.65-.5-2.73.56-3.71.17-4-.07a37.54,37.54,0,0,0,4.81-10.8,20.41,20.41,0,0,0,.72-4.65,5,5,0,0,0-.73-3.14,10.65,10.65,0,0,0-8.64-4,14.83,14.83,0,0,0-5,.78,12.76,12.76,0,0,0-2.81-.36,8.11,8.11,0,0,0-4.81,1.33,21.42,21.42,0,0,0-3.92-1c-3.17-.51-5.69-.12-7.49,1.15-2.14,1.52-3.13,4.24-2.94,8.08a50.47,50.47,0,0,0,2,9.07c1.53,5,3.19,7.84,4.94,8.42a2.18,2.18,0,0,0,.7.12,2.93,2.93,0,0,0,2.23-1.26c1.36-1.63,2.62-3,3.08-3.49a5,5,0,0,0,2.22.6V307l-.39.48c-.53.68-.64.82-2.37,1.18-.49.1-1.79.37-1.81,1.28s1.54,1.41,1.72,1.46a7.56,7.56,0,0,0,1.78.23,5.21,5.21,0,0,0,3.58-1.34c0,3.56.11,7.06.54,8.12a4.07,4.07,0,0,0,3.9,3,5.85,5.85,0,0,0,1.31-.15c2.81-.6,4-1.84,4.51-4.59.25-1.46.68-5,.89-6.84a5.28,5.28,0,0,0,1.58.2,9.43,9.43,0,0,0,3.6-.69c1-.47,2.85-1.63,2.52-2.63ZM406.38,294a11.72,11.72,0,0,1-.17,1.59,17.49,17.49,0,0,0-.2,1.85,14.83,14.83,0,0,0,.15,2.1,7.47,7.47,0,0,1-.33,4.27c-.1-.19-.2-.39-.29-.61s-.27-.52-.52-1c-1-1.75-3.24-5.83-2.08-7.49.35-.5,1.23-1,3.44-.74Zm-2.68-9.38a9.45,9.45,0,0,1,7.62,3.6c1.39,1.78-.14,9.88-4.58,16.86l-.13-.17-.06-.07c1.15-1.89.92-3.77.72-5.43a13.29,13.29,0,0,1-.14-1.93,13.9,13.9,0,0,1,.19-1.72,11.71,11.71,0,0,0,.18-2.14,1,1,0,0,0,0-.3,11.86,11.86,0,0,0-2.73-5.13,12.26,12.26,0,0,0-4.34-3.27,14.83,14.83,0,0,1,3.26-.3Zm-18.14,24.46c-.89,1.08-1.51.87-1.72.8-1.32-.44-2.86-3.24-4.22-7.69a49.84,49.84,0,0,1-1.91-8.8c-.17-3.43.66-5.82,2.47-7.1,2.95-2.09,7.79-.84,9.74-.21l-.08.09c-3.2,3.22-3.12,8.74-3.12,9.07,0,.13,0,.32,0,.57a22.06,22.06,0,0,1-.12,4.61,5.85,5.85,0,0,0,1.54,4.88,4.61,4.61,0,0,0,.4.37c-.55.59-1.74,1.89-3,3.41ZM389,304.5a4.74,4.74,0,0,1-1.24-3.95,23.63,23.63,0,0,0,.13-4.83c0-.13,0-.25,0-.34.47-.42,2.63-1.58,4.17-1.22a1.69,1.69,0,0,1,1.31,1.46c.93,4.27.13,6.05-.52,7.48-.13.3-.26.58-.36.86l-.09.23a13.81,13.81,0,0,0-.52,1.58A3.94,3.94,0,0,1,389,304.5Zm.16,5.76a2.67,2.67,0,0,1-.75-.32,4.23,4.23,0,0,1,.8-.24c2-.41,2.34-.71,3-1.58l.58-.7h0c.37-.41.54-.34.84-.21a1.14,1.14,0,0,1,.58.75.81.81,0,0,1-.07.7,4.43,4.43,0,0,1-5,1.6Zm10.6,9.87c-2.47.53-3.35-.74-3.93-2.18-.37-.93-.56-5.14-.43-9.79a.55.55,0,0,0,0-.18c0-.11,0-.22-.07-.33a2.27,2.27,0,0,0-1.23-1.47,1.67,1.67,0,0,0-1.13-.14,11.75,11.75,0,0,1,.48-1.46l.09-.23c.09-.25.21-.51.33-.79.68-1.49,1.6-3.54.6-8.17A2.93,2.93,0,0,0,390.9,293a8.27,8.27,0,0,0-2.7.84l-.3.17c.14-1.75.69-5,2.74-7.08a6.74,6.74,0,0,1,5.1-1.91,10.78,10.78,0,0,1,8.25,4,12.35,12.35,0,0,1,2.26,3.87c-2.09-.21-3.51.2-4.23,1.23-1.56,2.24.86,6.59,2,8.68.21.39.39.72.45.86a7.75,7.75,0,0,0,1.23,2c.11.14.22.27.3.39-.63.18-1.77.6-1.67,2.71-.08,1.05-.67,6-1,7.75-.39,2.31-1.24,3.18-3.64,3.69Zm10.35-11.84a8.23,8.23,0,0,1-2.76.57,3.41,3.41,0,0,1-1.85-.24c-.06-1.31.43-1.45.94-1.59l.24-.07.16.11c.91.6,2.54.67,4.84.19h0a6.21,6.21,0,0,1-1.59,1Z"/>
    </g>
    <g>
      <g>
        <path class="cls-65" d="M136.88,282.41h40v40h-40Z"/>
        <path d="M147.4,315.84l3.06-1.85c.59,1,1.13,1.93,2.41,1.93s2-.49,2-2.36V300.77h3.76v12.84c0,3.89-2.29,5.66-5.62,5.66a5.82,5.82,0,0,1-5.63-3.43"/>
        <path d="M160.69,315.43l3.06-1.77a4.08,4.08,0,0,0,3.7,2.29c1.56,0,2.56-.78,2.56-1.86,0-1.29-1-1.74-2.74-2.49l-.94-.41c-2.71-1.15-4.51-2.6-4.51-5.66,0-2.82,2.14-5,5.5-5a5.54,5.54,0,0,1,5.34,3l-2.92,1.88a2.56,2.56,0,0,0-2.42-1.61,1.63,1.63,0,0,0-1.8,1.61c0,1.12.7,1.58,2.31,2.28l.94.4c3.2,1.37,5,2.77,5,5.91,0,3.38-2.65,5.23-6.22,5.23s-5.75-1.66-6.85-3.84"/>
      </g>
      <g>
        <polygon class="cls-66" points="94.88 302.41 94.88 322.41 114.88 322.41 134.88 322.41 134.88 302.41 134.88 282.41 114.88 282.41 94.88 282.41 94.88 302.41"/>
        <path class="cls-29" d="M103.72,302.54v1.64h5.21V319h3.68v-14.8h5.21v-1.6a13.86,13.86,0,0,0,0-1.66s-3.18,0-7,0l-7,0Z"/>
        <path class="cls-29" d="M127.15,300.87a4.93,4.93,0,0,1,2.51,1.44,7.17,7.17,0,0,1,1,1.28c0,.05-1.73,1.22-2.79,1.87,0,0-.19-.14-.36-.39a2.26,2.26,0,0,0-1.88-1.13c-1.21-.08-2,.55-2,1.61a1.43,1.43,0,0,0,.17.75c.26.55.76.88,2.31,1.56,2.87,1.23,4.09,2,4.86,3.2a5.78,5.78,0,0,1,.46,4.87A5.35,5.35,0,0,1,127,319.1a12.39,12.39,0,0,1-3,0,7.37,7.37,0,0,1-4.07-2.12,7.29,7.29,0,0,1-1.05-1.55l.37-.23,1.49-.86,1.15-.66.24.35a5.37,5.37,0,0,0,1.52,1.46,3.73,3.73,0,0,0,3.89-.2,1.74,1.74,0,0,0,.22-2.22c-.31-.44-1-.82-2.75-1.6a10,10,0,0,1-3.76-2.31,5.31,5.31,0,0,1-1.1-2,8.15,8.15,0,0,1-.07-2.56,4.86,4.86,0,0,1,4.1-3.79A9.63,9.63,0,0,1,127.15,300.87Z"/>
      </g>
    </g>
    <g>
      <path class="cls-67" d="M201.57,304.06c.06,1.19,1.24.64,1.77.27s.66-.06.7-.75a10.32,10.32,0,0,0,.06-1.36,3.32,3.32,0,0,0-2.23.57c-.33.23-.93,1-.3,1.27"/>
      <path class="cls-67" d="M225.13,318.59c.91.56,2.57,2.26,1.21,3.09-1.31,1.19-2-1.32-3.19-1.66a3.1,3.1,0,0,1,2-1.43Z"/>
      <path class="cls-67" d="M208.91,320.51c-1.07.16-1.67,1.12-2.56,1.62s-1.16-.16-1.23-.3-.11.06-.32-.15c-.78-1.23.8-2.12,1.63-2.73,1.15-.23,1.87.77,2.48,1.56Z"/>
      <path class="cls-67" d="M230.17,303.92c-.06,1.18-1.24.63-1.77.26s-.65-.06-.7-.75a10.31,10.31,0,0,1,0-1.36,3.3,3.3,0,0,1,2.22.57c.32.23.93,1,.3,1.28"/>
      <path class="cls-68" d="M227,289.5c4.1-1.44.89-7.05-2.68-4.58-2.34-2-5.56-2.37-9-2.37-3.31.26-6.47.87-8.67,2.8-3.56-2.3-6.84,3.21-2.66,4.6-1.17,4.54.16,9.18,0,13.8-.17,4.16-1.26,9.72,1,13.45,2,3.19,6.18,4.33,9.66,4.46,4.44.16,9.82-.93,12-5.24,2.07-4.09,1.49-9.2,1.23-13.62s.23-9-.93-13.3Z"/>
      <path d="M230.48,303.22a1.78,1.78,0,0,0-.54-.67,3.44,3.44,0,0,0-1.9-.61c0-.71,0-1.49,0-2.48v-.89a51.74,51.74,0,0,0-.21-5.61,22.68,22.68,0,0,0-.59-3.4,2.59,2.59,0,0,0,1.5-3.89,2.89,2.89,0,0,0-4.3-.91,8.94,8.94,0,0,0-2.57-1.48,18.28,18.28,0,0,0-6.39-.87v.12l0-.12a18.7,18.7,0,0,0-6.78,1.54,8.35,8.35,0,0,0-1.89,1.24,3,3,0,0,0-2.55-.4,3.11,3.11,0,0,0-1.8,1.46,2.64,2.64,0,0,0-.22,2.2A2.84,2.84,0,0,0,204,290a16.22,16.22,0,0,0-.46,3.74,44.37,44.37,0,0,0,.24,4.76c.15,1.78.21,2.59.23,3.58a3.41,3.41,0,0,0-2.14.6,1.66,1.66,0,0,0-.54.66.55.55,0,0,0,.2.78c.05.55.36.81.83.76a2.47,2.47,0,0,0,1.11-.47,1.49,1.49,0,0,1,.24-.14l.09,0,.1,0a.25.25,0,0,0,.09,0c0,.54-.07,1.1-.17,2.38-.12,1.45-.18,2.24-.2,3.13-.1,3.28.29,5.66,1.46,7.56a7.31,7.31,0,0,0,1.34,1.6l-.68.5a3.85,3.85,0,0,0-1,1,1.26,1.26,0,0,0,0,1.37h0c.13.12.2.16.29.16h0s0,0,0,.06l.1.15a.88.88,0,0,0,1.23.09,5,5,0,0,0,.93-.69l0,0a3,3,0,0,1,1.56-.9l.19,0,.21.09a16.56,16.56,0,0,0,5.44,1.08,18.36,18.36,0,0,0,6.89-1,11.64,11.64,0,0,0,1.52-.67c.3.11.55.35,1,.92l0,0s0,0,0,.05l.08.09a2.61,2.61,0,0,0,.91.79,1,1,0,0,0,1.13-.26c.66-.42.71-1.06.27-1.79a4.87,4.87,0,0,0-1.35-1.4,7.93,7.93,0,0,0,1.51-2.08,17.27,17.27,0,0,0,1.51-8.08c0-1.17-.06-2.19-.19-4.14v-.06a.81.81,0,0,1,.18.1,2.47,2.47,0,0,0,1.11.47c.47.05.78-.2.83-.75h0a.57.57,0,0,0,.19-.79Zm-3.65-18.72a2.69,2.69,0,0,1,1.65,1.31,2.33,2.33,0,0,1-1.36,3.54,18.32,18.32,0,0,0-.61-1.81.85.85,0,0,0,.23-1.15.9.9,0,0,0-1.19-.41,9,9,0,0,0-1-1.06,2.78,2.78,0,0,1,2.26-.42Zm-24.46,3.88a2.37,2.37,0,0,1,.2-2,2.89,2.89,0,0,1,1.68-1.35,2.83,2.83,0,0,1,2.3.34,7.86,7.86,0,0,0-1.19,1.37c-.6-.31-1.2-.37-1.55.26s.06,1.1.64,1.42c-.08.2-.16.41-.22.61s-.17.52-.23.78a2.62,2.62,0,0,1-1.63-1.43ZM203.75,304l-.08,0-.1.05a1,1,0,0,0-.27.16,2.25,2.25,0,0,1-1,.42c-.35,0-.54-.11-.58-.52a.7.7,0,0,0,.44-.28l-.19-.14c-.06.1-.13.13-.34.2h0c-.19-.1-.22-.26-.12-.49a1.67,1.67,0,0,1,.47-.58,3.18,3.18,0,0,1,2-.55c0,.29,0,.58,0,.85a.25.25,0,0,1,0,.09c0,.16,0,.23,0,.31h0c0,.34-.06.38-.19.44Zm3.47,17.32,0,0a4.88,4.88,0,0,1-.9.66c-.43.27-.73.21-.94,0l-.08-.12,0,0h0a1.44,1.44,0,0,1,.31-.68v0a3.44,3.44,0,0,0,.24-.42l-.21-.09a2.13,2.13,0,0,1-.22.38v0a1.88,1.88,0,0,0-.34.69H205l-.1-.08c-.45-.71-.09-1.32.92-2.08l.66-.48.07,0a9.15,9.15,0,0,0,2.15,1.36h0a.05.05,0,0,0,0,0,3.38,3.38,0,0,0-1.48.91Zm19.27-1.26c.35.6.34,1.08-.11,1.42,0-.07,0-.15-.1-.27v0a2,2,0,0,0-.46-.83l-.16.16a1.87,1.87,0,0,1,.41.74s0,0,0,0l.13.32a.73.73,0,0,1-.84.17,2.58,2.58,0,0,1-.83-.73.31.31,0,0,1-.07-.09.1.1,0,0,1,0-.05l0,0a3.92,3.92,0,0,0-.95-.91,9.6,9.6,0,0,0,1.73-1.26,5.36,5.36,0,0,1,1.32,1.37Zm.16-3.71a8.7,8.7,0,0,1-5.07,4.23,18.38,18.38,0,0,1-6.81.93c-4.21-.15-7.86-1.62-9.57-4.39-1.15-1.85-1.53-4.2-1.42-7.44,0-.88.08-1.68.19-3.12.13-1.63.16-2.1.2-2.84,0-.52,0-1.06,0-1.64,0-1-.08-1.81-.23-3.61a41.64,41.64,0,0,1-.24-4.74,15.29,15.29,0,0,1,.74-4.67,8.17,8.17,0,0,1,4.29-4.93,18.53,18.53,0,0,1,6.69-1.51,18.05,18.05,0,0,1,6.31.86,8,8,0,0,1,4.55,4.06,18.91,18.91,0,0,1,1.26,5.41,48.85,48.85,0,0,1,.21,5.59v.89c0,1.39,0,2.37.09,3.34,0,.38,0,.54.09,1.45.13,1.95.18,3,.19,4.13a17.16,17.16,0,0,1-1.48,8Zm3.51-12.57h0a.68.68,0,0,1-.35-.2l-.18.14a.74.74,0,0,0,.43.28c0,.41-.24.56-.57.53a2.43,2.43,0,0,1-1-.43,1.56,1.56,0,0,0-.28-.16h0c0-.63,0-.79-.07-1.13l0-.62a3.1,3.1,0,0,1,1.75.57,1.55,1.55,0,0,1,.47.57c.12.2.09.37-.1.47Z"/>
      <g>
        <path class="cls-29" d="M217.15,294.38a9.49,9.49,0,0,1,0,1.85c-.16.3-.46.33-.73.45a1.1,1.1,0,0,1-.82-.64,11.94,11.94,0,0,1,.05-2.07,2.64,2.64,0,0,1,.83.13,2.85,2.85,0,0,1,.64.28Z"/>
        <path class="cls-29" d="M213.91,294.43c-.33,1.22.42,3.2,1.65,1.57a11.46,11.46,0,0,1,0-2,8.06,8.06,0,0,0-1.69.46Z"/>
        <path d="M217.29,294.92c0-.34,0-.48,0-.65v-.08l-.08,0-1.45-.44v-.08l-.15,0h0l-1.63.42h-.06l0,.05a2.66,2.66,0,0,0,.13,2.09c.36.65,1,.66,1.57-.08a1.13,1.13,0,0,0,.86.62h.07l.17-.07h0a.86.86,0,0,0,.59-.42v0a4.43,4.43,0,0,0,.05-.66c0-.18,0-.34,0-.66Zm-1.83-.42c0,.2,0,.28,0,.4a7.47,7.47,0,0,0,0,1.07c-.54.68-1,.68-1.25.17a2.44,2.44,0,0,1-.12-1.84l1.44-.36,0,.56Zm1.6,1.7c-.08.13-.18.2-.46.29l0,0-.15.05a.94.94,0,0,1-.7-.55,7.17,7.17,0,0,1,0-1.05c0-.12,0-.2,0-.4a5.07,5.07,0,0,0,0-.58l1.25.38c0,.15,0,.29,0,.59a6.29,6.29,0,0,1,0,.65,2.86,2.86,0,0,1-.05.6Z"/>
      </g>
      <g>
        <path class="cls-29" d="M207,289.38c1.05,4.11,7.63,3.06,7.38-1.06-.3-4.94-8.39-4-7.38,1.06"/>
        <path d="M214.49,288.3a3.33,3.33,0,0,0-1.47-2.7,4.14,4.14,0,0,0-2.83-.61,4.09,4.09,0,0,0-2.58,1.32,3.47,3.47,0,0,0-.71,3.07l.1,0-.1,0c1.07,4.23,7.84,3.2,7.59-1.08Zm-7.39,1.06a3.25,3.25,0,0,1,.67-2.89,3.83,3.83,0,0,1,2.44-1.25,3.91,3.91,0,0,1,2.69.57,3.17,3.17,0,0,1,1.37,2.55c.24,4-6.15,5-7.17,1Z"/>
        <ellipse cx="208.81" cy="288.71" rx="1.11" ry="1.2"/>
        <ellipse class="cls-29" cx="209.32" cy="288.98" rx="0.26" ry="0.31"/>
      </g>
      <g>
        <path class="cls-29" d="M216.22,288.62c.81,4.71,8.53,3.46,7.41-1.29-1-4.27-7.69-3.09-7.41,1.29"/>
        <path d="M223.74,287.31c-1-4.4-7.91-3.19-7.63,1.32h0a3.72,3.72,0,0,0,4.55,3,4.1,4.1,0,0,0,2.48-1.36,3.34,3.34,0,0,0,.6-3Zm-.77,2.82a3.89,3.89,0,0,1-2.34,1.29,3.53,3.53,0,0,1-4.31-2.82c-.25-4.24,6.25-5.38,7.21-1.25a3.1,3.1,0,0,1-.56,2.78Z"/>
        <ellipse cx="218.11" cy="288.41" rx="1.09" ry="1.2"/>
        <ellipse class="cls-29" cx="218.62" cy="288.68" rx="0.25" ry="0.31"/>
      </g>
      <g>
        <path class="cls-67" d="M214.14,292a1.43,1.43,0,0,0-1.17,2c.62,1.12,2-.11,2.87,0s1.81,1.05,2.61.18-.38-1.9-1.38-2.32l-2.93.13Z"/>
        <path class="cls-69" d="M218.56,292.72a3.68,3.68,0,0,0-1.43-1h0l-2.94.11a1.55,1.55,0,0,0-1.26,2.17,1,1,0,0,0,.82.54,2.54,2.54,0,0,0,1-.19l.14-.05a2.41,2.41,0,0,1,1-.22h0a2.35,2.35,0,0,1,.94.26,2.89,2.89,0,0,0,.87.27,1.15,1.15,0,0,0,.91-1.89Zm-.19,1.35a.84.84,0,0,1-.7.31,2.54,2.54,0,0,1-.81-.25,2.77,2.77,0,0,0-1-.28,2.63,2.63,0,0,0-1.13.23l-.14.05c-.84.29-1.24.26-1.52-.24a1.33,1.33,0,0,1,1.08-1.84l2.91-.11a3.45,3.45,0,0,1,1.33.92.83.83,0,0,1,0,1.21Z"/>
        <path d="M217.3,291.46c-.36-1.31-3.34-1.12-3.27.44.15,1.16,3.61.85,3.27-.44Z"/>
      </g>
    </g>
    <text class="cls-70" transform="translate(104.04 257.57)"><tspan class="cls-71">T</tspan><tspan x="7.31" y="0">ypeScrip /</tspan><tspan x="2.13" y="15.6">J</tspan><tspan class="cls-72" x="9.27" y="15.6">av</tspan><tspan x="22.15" y="15.6">aScript</tspan></text>
    <text class="cls-70" transform="translate(193.93 265.37)">GoLang</text>
    <text class="cls-70" transform="translate(296.03 265.37)">Mongo</text>
    <text class="cls-70" transform="translate(369.96 265.37)"><tspan class="cls-73">P</tspan><tspan x="7.73" y="0">ostg</tspan><tspan class="cls-74" x="32.59" y="0">r</tspan><tspan x="36.82" y="0">es</tspan></text>
    <text class="cls-70" transform="translate(474.37 265.37)">Angular</text>
    <text class="cls-70" transform="translate(554.83 265.37)">Node.js</text>
    <text class="cls-70" transform="translate(642.41 265.37)">Ionic</text>
    <text class="cls-70" transform="translate(712.96 265.37)">Elect<tspan class="cls-10" x="27.34" y="0">r</tspan><tspan x="31.56" y="0">on</tspan></text>
    <text class="cls-70" transform="translate(828.02 265.37)">Git</text>
    <text class="cls-70" transform="translate(898.29 257.57)">Google Cloud<tspan x="13.24" y="15.6">Platform</tspan></text>
    <text class="cls-70" transform="translate(996.29 265.37)">Doc<tspan class="cls-75" x="22.25" y="0">k</tspan><tspan x="28.28" y="0">er</tspan></text>
    <text class="cls-76" transform="translate(1063.86 265.37)">K<tspan class="cls-77" x="8.11" y="0">ubernetes</tspan></text>
  </g>
</svg>
